<svg version="1.1" xmlns="http://www.w3.org/2000/svg" width="24" height="24" viewBox="0 0 24 24">
<path fill="currentColor" d="M17.059 8.138c-0.276-0.212-0.684-0.175-0.911 0.082-0.215 0.243-0.191 0.597 0.045 0.814l0.044 0.037 4.058 3.118-4.025 2.717c-0.274 0.185-0.347 0.532-0.178 0.798l0.032 0.046c0.198 0.255 0.57 0.324 0.855 0.166l0.049-0.030 4.705-3.175c0.329-0.222 0.358-0.664 0.073-0.922l-0.041-0.034-4.705-3.616z"></path>
<path fill="currentColor" d="M6.941 8.138c0.276-0.212 0.684-0.175 0.911 0.082 0.215 0.243 0.191 0.597-0.045 0.814l-0.044 0.037-4.058 3.118 4.025 2.717c0.274 0.185 0.347 0.532 0.178 0.798l-0.032 0.046c-0.198 0.255-0.57 0.324-0.855 0.166l-0.049-0.030-4.705-3.175c-0.329-0.222-0.358-0.664-0.073-0.922l0.041-0.034 4.705-3.616z"></path>
<path fill="currentColor" d="M13.747 6.379c0.135-0.31 0.515-0.46 0.848-0.334 0.315 0.119 0.476 0.443 0.377 0.741l-0.019 0.049-4.699 10.786c-0.135 0.31-0.515 0.46-0.848 0.334-0.315-0.119-0.476-0.443-0.377-0.741l0.019-0.049 4.699-10.786z"></path>
</svg>
