<?xml version="1.0" encoding="UTF-8"?>
<svg width="20px" height="20px" viewBox="0 0 20 20" version="1.1" xmlns="http://www.w3.org/2000/svg" xmlns:xlink="http://www.w3.org/1999/xlink">
    <title>icon/01公共图标/鲲鹏/24px/提示</title>
    <g id="PC交互稿" stroke="none" stroke-width="1" fill="none" fill-rule="evenodd">
        <g id="接收人管理-样式2" transform="translate(-1646.000000, -240.000000)">
            <g id="编组-10" transform="translate(252.000000, 104.000000)">
                <g id="编组-9" transform="translate(1272.000000, 130.000000)">
                    <g id="编组" transform="translate(120.000000, 4.000000)">
                        <rect id="矩形" x="0" y="0" width="24" height="24"></rect>
                        <path fill="currentColor" d="M12.031176,2.34969194 C13.6625403,2.34969194 15.2371369,2.75342432 16.6415139,3.51339355 C16.9815221,3.6973867 17.1079972,4.1221737 16.9240041,4.46218187 C16.740011,4.80219005 16.3152239,4.92866522 15.9752158,4.74467207 C14.7742183,4.09476034 13.4284171,3.74969194 12.031176,3.74969194 C7.44721262,3.74969194 3.73117605,7.46572851 3.73117605,12.0496919 C3.73117605,16.6336554 7.44721262,20.3496919 12.031176,20.3496919 C16.6151395,20.3496919 20.331176,16.6336554 20.331176,12.0496919 C20.331176,9.98725201 19.5770316,8.0438889 18.2339916,6.53456169 C17.9769977,6.24574831 18.0027925,5.80328408 18.2916058,5.54629016 C18.5804192,5.28929625 19.0228834,5.31509101 19.2798774,5.60390438 C20.8488728,7.36716349 21.731176,9.64078049 21.731176,12.0496919 C21.731176,17.406854 17.3883381,21.7496919 12.031176,21.7496919 C6.67401397,21.7496919 2.33117605,17.406854 2.33117605,12.0496919 C2.33117605,6.69252986 6.67401397,2.34969194 12.031176,2.34969194 Z M12.0151187,9.38904102 C12.369499,9.39035853 12.6613971,9.65478513 12.7064829,9.99662499 L12.7125212,10.0916339 L12.6874692,16.8552169 C12.6860373,17.2418136 12.371478,17.5540513 11.9848813,17.5526243 C11.630501,17.5513068 11.3386029,17.2868802 11.2935171,16.9450403 L11.2874788,16.8500314 L11.3125308,10.0864484 C11.3139627,9.6998517 11.628522,9.38761399 12.0151187,9.38904102 Z M12,6.52027345 C12.6258977,6.52027345 13.133288,7.02766375 13.133288,7.6535614 C13.133288,8.27945906 12.6258977,8.78684935 12,8.78684935 C11.3741023,8.78684935 10.866712,8.27945906 10.866712,7.6535614 C10.866712,7.02766375 11.3741023,6.52027345 12,6.52027345 Z" id="形状结合" fill="#303030" fill-rule="nonzero"></path>
                    </g>
                </g>
            </g>
        </g>
    </g>
</svg>