<?xml version="1.0" encoding="UTF-8"?>
<svg width="277px" height="171px" viewBox="0 0 277 171" version="1.1" xmlns="http://www.w3.org/2000/svg" xmlns:xlink="http://www.w3.org/1999/xlink">
    <title>暂无消息</title>
    <g id="PC交互稿" stroke="none" stroke-width="1" fill="none" fill-rule="evenodd">
        <g id="消息中心页---首次登录气泡" transform="translate(-974.000000, -480.000000)">
            <g id="暂无消息" transform="translate(974.000000, 480.000000)">
                <path d="M9.64439659e-15,27.1465631 C9.64439659e-15,27.1465631 15.3921013,30.0648186 27.9134535,61.4394588 C40.4348057,92.8140991 67.7510347,76.5533078 67.7510347,109.787488 L9.64439659e-15,109.787488 L9.64439659e-15,27.1465631 Z" id="Fill-3" fill="#DADCE1"></path>
                <path d="M269.416065,118.087549 L176.079395,118.087549 L175.692556,118.087549 L82.3558857,118.087549 C82.3558857,118.087549 78.9218454,125.152442 93.363817,123.605088 C107.805789,122.057734 118.297935,123.028224 118.297935,126.584424 C118.297935,130.140623 110.262552,130.317076 113.248674,135.386697 C116.234796,140.456317 129.468746,135.814255 130.676768,140.456317 C131.878003,145.105166 120.876859,147.677303 126.889822,151.294583 C132.909573,154.905075 158.529142,147.677303 163.686989,155.42086 C168.139025,162.098915 174.131629,162.736859 175.692556,162.791152 L175.692556,162.791152 C175.692556,162.791152 175.760422,162.791152 175.882582,162.791152 C176.011528,162.791152 176.079395,162.791152 176.079395,162.791152 L176.079395,162.791152 C177.640322,162.736859 183.632926,162.098915 188.078175,155.42086 C193.242809,147.677303 218.862378,154.905075 224.882128,151.294583 C230.895092,147.677303 219.893947,145.105166 221.095183,140.456317 C222.296418,135.814255 235.537154,140.456317 238.523276,135.386697 C241.502612,130.317076 233.474016,130.140623 233.474016,126.584424 C233.474016,123.028224 243.966162,122.057734 258.408134,123.605088 C272.850105,125.152442 269.416065,118.087549 269.416065,118.087549 Z" id="Fill-1" fill="#3165E7"></path>
                <path d="M123.937634,158.902407 C123.937634,160.252948 122.838198,161.352384 121.487656,161.352384 C120.137115,161.352384 119.037679,160.252948 119.037679,158.902407 C119.037679,157.545079 120.137115,156.45243 121.487656,156.45243 C122.838198,156.45243 123.937634,157.545079 123.937634,158.902407 Z" id="Fill-3" fill="#6CC3FF"></path>
                <path d="M242.065903,141.969738 C242.065903,143.32028 240.966467,144.419715 239.615925,144.419715 C238.265384,144.419715 237.165948,143.32028 237.165948,141.969738 C237.165948,140.61241 238.265384,139.519761 239.615925,139.519761 C240.966467,139.519761 242.065903,140.61241 242.065903,141.969738 Z" id="Fill-5" fill="#6CC3FF"></path>
                <path d="M49.2302921,166.557738 L65.6268162,166.170899 C65.3757105,163.374803 64.893859,147.901262 64.893859,147.901262 L83.048123,143.32028 C76.7026139,120.055675 57.2724614,111.375562 57.2724614,111.375562 L36.1999418,111.72168 C10.9332783,129.461959 17.6588393,156.927494 17.6588393,156.927494 L28.0559729,155.020448 L28.0559729,155.020448 C31.5578796,163.347657 40.3465793,168.139025 49.2302921,166.557738 Z" id="Fill-20" fill="#FFCB6E"></path>
                <path d="M34.421842,129.333013 C34.421842,129.333013 33.4038458,140.395237 37.8490955,152.984456 L28.0559729,155.020448" id="Stroke-22" stroke="#000000" stroke-linecap="round" stroke-linejoin="round"></path>
                <path d="M65.7829089,125.389975 C65.7829089,125.389975 68.9590568,130.608901 68.1921664,134.422994 C67.4320626,138.237086 64.724193,142.553389 64.893859,147.901262" id="Stroke-24" stroke="#000000" stroke-linecap="round" stroke-linejoin="round"></path>
                <path d="M24.6422926,155.644819 C24.6422926,155.644819 27.3637356,171.416972 35.5280644,169.896765 C43.6923932,168.369771 65.5250166,163.666629 65.5250166,163.666629 L69.5902144,153.615614 C69.5902144,153.615614 45.4637065,159.343538 40.258353,159.343538 C35.0529995,159.343538 34.7883206,153.615614 34.7883206,153.615614 L24.6422926,155.644819 Z" id="Fill-26" fill="#FFFFFF"></path>
                <path d="M35.5280644,169.896765 C43.6923932,168.369771 65.5250166,163.666629 65.5250166,163.666629 L69.5902144,153.615614 C69.5902144,153.615614 45.4637065,159.343538 40.258353,159.343538 C35.0529995,159.343538 34.7883206,153.615614 34.7883206,153.615614 L24.6422926,155.644819 C24.6422926,155.644819 27.3637356,171.416972 35.5280644,169.896765 Z" id="Stroke-28" stroke="#000000"></path>
                <path d="M40.2379931,108.898438 C40.882724,108.423373 41.2763491,107.670056 41.2763491,106.862445 C41.2831358,102.99406 41.3645755,92.5901399 41.9617998,87.7309051 C42.6676105,81.9011807 51.7956423,82.0231426 51.7956423,82.0231426 C51.7956423,82.0231426 54.2184731,85.2198481 56.0915859,89.3121924 C56.6073706,90.4252015 57.5982202,91.2803183 58.8062422,91.5042774 C59.1048544,91.5585705 59.4170399,91.5789305 59.736012,91.5382106 C61.039047,91.3821179 58.677296,93.194151 57.6525133,93.9406814 C57.3946209,94.137494 57.2724614,94.4632528 57.3403278,94.7754383 C57.6592999,96.1463397 58.4058304,99.8450589 57.543927,101.2974 C56.4852111,103.102646 52.9765178,101.786038 52.9765178,101.786038 C52.9765178,101.786038 49.515331,100.082591 50.0718356,106.828512 C50.1464886,107.751495 50.7301397,108.565892 51.5852564,108.932371 L57.2724614,111.375562 C57.2724614,111.375562 60.699715,121.453723 52.4471598,121.704829 C44.1946047,121.962721 36.1999418,111.728467 36.1999418,111.728467 C36.1999418,111.728467 37.991615,110.534018 40.2379931,108.898438 Z" id="Fill-30" fill="#FFFFFF"></path>
                <path d="M41.2763491,106.862445 C41.2831358,102.99406 41.3645755,92.5901399 41.9617998,87.7309051 C42.6676105,81.9011807 51.7956423,82.0231426 51.7956423,82.0231426 C51.7956423,82.0231426 54.2184731,85.2198481 56.0915859,89.3121924 C56.6073706,90.4252015 57.5982202,91.2803183 58.8062422,91.5042774 C59.1048544,91.5585705 59.4170399,91.5789305 59.736012,91.5382106 C61.039047,91.3821179 58.677296,93.194151 57.6525133,93.9406814 C57.3946209,94.137494 57.2724614,94.4632528 57.3403278,94.7754383 C57.6592999,96.1463397 58.4058304,99.8450589 57.543927,101.2974 C56.4852111,103.102646 52.9765178,101.786038 52.9765178,101.786038 C52.9765178,101.786038 49.515331,100.082591 50.0718356,106.828512 C50.1464886,107.751495 50.7301397,108.565892 51.5852564,108.932371 L57.2724614,111.375562 C57.2724614,111.375562 60.699715,121.453723 52.4471598,121.704829 C44.1946047,121.962721 36.1999418,111.728467 36.1999418,111.728467 C36.1999418,111.728467 37.991615,110.534018 40.2379931,108.898438 C40.882724,108.423373 41.2763491,107.670056 41.2763491,106.862445 Z" id="Stroke-32" stroke="#000000"></path>
                <path d="M51.008392,77.8767028 C51.4495236,78.2092482 52.0603213,78.175315 52.481093,77.8224096 C53.7298349,76.7704803 56.3155451,75.1484732 58.6365762,77.2659051 C61.6702046,80.0348545 59.736012,86.4278701 53.1936903,86.2921373 C52.576106,86.278564 52.046748,86.6993358 51.9178018,87.3101334 C51.7209893,88.2602631 51.1237649,89.5768714 49.3728116,90.208029 C46.4477694,91.2531717 44.622163,87.8123448 42.4843712,89.5361516 C41.0184568,90.7170271 42.0839594,92.8616056 43.2037551,94.1850005 C43.5702337,94.6193455 43.5159406,95.270863 43.0951688,95.6509149 L41.4120819,97.1711225 C41.4120819,97.1711225 36.1999418,93.6352826 35.5959308,88.6131684 C35.1072927,84.5751172 37.3400975,81.9894071 38.2291474,81.141077 C38.4463199,80.9306911 38.6024127,80.6795854 38.6974256,80.3945465 C39.0774775,79.2543908 40.4755255,76.2682689 44.7375359,76.2343357 C48.1647895,76.2004025 50.0854088,77.1844654 51.008392,77.8767028 Z" id="Fill-34" fill="#0D0D0D"></path>
                <path d="M38.6499191,80.3266801 C38.8874516,79.8855484 39.0028245,79.3969103 38.9892512,78.9014855 C38.955318,77.1776788 38.3377337,73.4043065 33.627805,72.9156684 C27.4994684,72.2777241 28.0695462,79.1458046 28.0695462,79.1458046 C28.0695462,79.1458046 28.6939171,84.8873027 36.064209,84.4597443 C36.064209,84.4597443 36.8310994,82.7562975 37.9033887,81.4939823 C38.1680677,81.1817968 38.3852402,80.8424648 38.5752661,80.4827728 L38.6499191,80.3266801 Z" id="Fill-36" fill="#000000"></path>
                <path d="M48.2394425,90.4659214 C48.2394425,90.4659214 51.6259763,91.965769 50.1464886,95.1826367 C49.4813978,96.6214046 48.4566151,97.2118423 47.5268453,97.4222282 C45.4704931,97.897293 43.4277142,96.3431523 43.6516734,94.2392936 C43.6516734,94.2121471 43.65846,94.1917872 43.65846,94.1714272 C43.9434989,91.8775427 45.9319847,91.6875167 46.7599549,91.965769 C47.5811384,92.2372346 48.6737876,93.0312716 48.3616021,94.4428929 C48.0562032,95.8477275 46.7124484,95.9563138 46.0066377,95.6577016 C45.2872538,95.3455161 44.7443226,94.1510673 45.755532,93.4316834" id="Stroke-38" stroke="#000000" stroke-linecap="round" stroke-linejoin="round"></path>
                <polygon id="Fill-64" fill="#CACBCC" points="100.835908 166.401645 52.576106 166.401645 65.2603376 136.988344 113.52014 136.988344"></polygon>
                <path d="M97.8497865,83.4417482 L122.573519,83.4417482 C124.480565,83.4417482 126.034706,84.9891023 126.034706,86.902935 L126.034706,103.089073 C126.034706,104.996119 124.480565,106.55026 122.573519,106.55026 L105.050412,106.55026 C104.141003,106.55026 103.238379,106.760646 102.417196,107.167844 L95.8816607,110.425432 C95.19621,110.771551 94.3885997,110.269339 94.3885997,109.502449 L94.3885997,103.089073 L94.3885997,97.4765213 L94.3885997,86.902935 C94.3885997,84.9891023 95.9359538,83.4417482 97.8497865,83.4417482 Z" id="Fill-90" fill="#FFCA6E"></path>
                <path d="M120.625753,94.4293196 C120.625753,95.5219687 119.74349,96.404232 118.65084,96.404232 C117.564978,96.404232 116.682715,95.5219687 116.682715,94.4293196 C116.682715,93.3434571 117.564978,92.4611938 118.65084,92.4611938 C119.74349,92.4611938 120.625753,93.3434571 120.625753,94.4293196 Z" id="Fill-91" fill="#FFFFFF"></path>
                <path d="M112.834689,94.4293196 C112.834689,95.5219687 111.952426,96.404232 110.859777,96.404232 C109.773914,96.404232 108.891651,95.5219687 108.891651,94.4293196 C108.891651,93.3434571 109.773914,92.4611938 110.859777,92.4611938 C111.952426,92.4611938 112.834689,93.3434571 112.834689,94.4293196 Z" id="Fill-92" fill="#FFFFFF"></path>
                <path d="M105.043626,94.4293196 C105.043626,95.5219687 104.161362,96.404232 103.0755,96.404232 C101.982851,96.404232 101.100587,95.5219687 101.100587,94.4293196 C101.100587,93.3434571 101.982851,92.4611938 103.0755,92.4611938 C104.161362,92.4611938 105.043626,93.3434571 105.043626,94.4293196 Z" id="Fill-93" fill="#FFFFFF"></path>
                <path d="M157.606158,1.35732815 L218.136207,1.35732815 C230.284294,1.35732815 240.13171,11.1979573 240.13171,23.3460442 L240.13171,57.0077824 L135.617442,57.0077824 L135.617442,23.3460442 C135.617442,11.1979573 145.458071,1.35732815 157.606158,1.35732815 Z" id="矩形-1" fill="#3165E8"></path>
                <path d="M218.136207,1.35732815 C230.284294,1.35732815 240.13171,11.1979573 240.13171,23.3460442 L240.13171,57.0077824 L135.617442,57.0077824 L135.617442,23.3460442 C135.617442,11.1979573 145.458071,1.35732815 157.606158,1.35732815 L218.136207,1.35732815 Z" id="矩形-1" stroke="#000000"></path>
                <path d="M198.054537,22.3959145 C198.054537,10.7703989 207.467608,1.35732815 219.093124,1.35732815 C230.711853,1.35732815 240.13171,10.7703989 240.13171,22.3959145 L240.13171,57.0077824 L198.054537,57.0077824 L198.054537,22.3959145 Z" id="矩形-2" fill="#002F9C"></path>
                <path d="M200.769194,23.0745786 C200.769194,12.9489106 208.967456,4.75064853 219.093124,4.75064853 C229.212005,4.75064853 237.417054,12.9489106 237.417054,23.0745786 L237.417054,53.614462 L200.769194,53.614462 L200.769194,23.0745786 Z" id="矩形-2" fill="#6CC4FF"></path>
                <path d="M248.445345,87.2558403 L250.942829,87.2558403 C258.957852,87.2558403 262.81945,77.4287845 256.949006,71.9723253 L240.13171,56.3291183 L198.054537,56.3291183 L210.467303,70.2417319 C220.124693,81.0664239 233.942294,87.2558403 248.445345,87.2558403 Z" id="矩形-6" fill="#002F9C"></path>
                <path d="M210.195838,65.1517513 C219.317083,76.3157754 232.971804,82.7970173 247.386629,82.7970173 C254.96052,82.7970173 258.604946,73.5061061 253.046688,68.3618324 L237.118442,53.614462 L200.769194,53.614462 L210.195838,65.1517513 Z" id="矩形-6" fill="#3165E8"></path>
                <rect id="矩形-3" fill="#FFFFFF" fill-rule="nonzero" x="164.482205" y="21.9750634" width="23.3666634" height="5.49803821" rx="2.7490191"></rect>
                <rect id="矩形-4" fill="#FFFFFF" fill-rule="nonzero" x="169.980113" y="32.9710448" width="17.8686245" height="5.49803821" rx="2.7490191"></rect>
                <rect id="矩形-5" fill="#FFFFFF" fill-rule="nonzero" x="175.478187" y="43.9670269" width="12.3705856" height="5.49803821" rx="2.7490191"></rect>
                <ellipse id="椭圆-2" fill="#002F9C" fill-rule="nonzero" cx="175.546948" cy="119.393348" rx="17.8686245" ry="4.12352899"></ellipse>
                <rect id="矩形-8" fill="#002F9C" fill-rule="nonzero" x="157.678333" y="109.77176" width="35.737249" height="9.6215672"></rect>
                <ellipse id="椭圆-1" fill="#6CC4FF" fill-rule="nonzero" cx="175.546948" cy="109.77176" rx="17.8686245" ry="4.12352899"></ellipse>
                <path d="M168.871982,56.3291183 L182.445264,56.3291183 L182.445264,105.192932 C182.445264,108.939158 179.404849,111.979573 175.658623,111.979573 C171.905611,111.979573 168.871982,108.939158 168.871982,105.192932 L168.871982,56.3291183 Z" id="矩形-7" fill="#FFFFFF"></path>
                <path d="M182.445264,56.3291183 L182.445264,105.192932 C182.445264,108.939158 179.404849,111.979573 175.658623,111.979573 C171.905611,111.979573 168.871982,108.939158 168.871982,105.192932 L168.871982,56.3291183 L182.445264,56.3291183 Z" id="矩形-7" stroke="#000000"></path>
                <path d="M15.2427952,0 L52.3046404,0 C55.1686028,0 57.4896339,2.32103114 57.4896339,5.18499354 L57.4896339,29.4472343 C57.4896339,32.3111967 55.1686028,34.6322278 52.3046404,34.6322278 L26.0403406,34.6322278 C24.6762258,34.6322278 23.3188977,34.9511999 22.0973023,35.5619976 L12.2973931,40.448379 C11.2726103,40.957377 10.0645883,40.2108465 10.0645883,39.0571176 L10.0645883,29.4472343 L10.0645883,21.0317997 L10.0645883,5.18499354 C10.0645883,2.32103114 12.3788328,0 15.2427952,0 Z" id="Fill-12" fill="#6CC4FF"></path>
                <path d="M49.3863848,16.4711771 C49.3863848,18.1067576 48.0629899,19.4301525 46.4274095,19.4301525 C44.7986157,19.4301525 43.4752207,18.1067576 43.4752207,16.4711771 C43.4752207,14.8355967 44.7986157,13.5122018 46.4274095,13.5122018 C48.0629899,13.5122018 49.3863848,14.8355967 49.3863848,16.4711771 Z" id="Fill-14" fill="#FFFFFF"></path>
                <path d="M37.7065761,16.4711771 C37.7065761,18.1067576 36.3831811,19.4301525 34.7543873,19.4301525 C33.1188069,19.4301525 31.795412,18.1067576 31.795412,16.4711771 C31.795412,14.8355967 33.1188069,13.5122018 34.7543873,13.5122018 C36.3831811,13.5122018 37.7065761,14.8355967 37.7065761,16.4711771 Z" id="Fill-16" fill="#FFFFFF"></path>
                <path d="M26.033554,16.4711771 C26.033554,18.1067576 24.710159,19.4301525 23.0745786,19.4301525 C21.4457848,19.4301525 20.1223899,18.1067576 20.1223899,16.4711771 C20.1223899,14.8355967 21.4457848,13.5122018 23.0745786,13.5122018 C24.710159,13.5122018 26.033554,14.8355967 26.033554,16.4711771 Z" id="Fill-18" fill="#FFFFFF"></path>
                <path d="M67.8256878,40.2447797 L47.15358,40.2447797 C46.0405709,40.2447797 45.1379477,39.3421565 45.1379477,38.2291474 L45.1379477,30.5534567 C45.1379477,29.4472343 46.0405709,28.5446111 47.15358,28.5446111 L67.8256878,28.5446111 C68.9386969,28.5446111 69.8345335,29.4472343 69.8345335,30.5534567 L69.8345335,38.2291474 C69.8345335,39.3421565 68.9386969,40.2447797 67.8256878,40.2447797 Z" id="Fill-62" fill="#002F9C"></path>
                <path d="M265.920945,117.748217 C265.920945,122.057734 262.425825,125.552854 258.116308,125.552854 C253.800005,125.552854 250.311671,122.057734 250.311671,117.748217 C250.311671,113.431914 253.800005,109.94358 258.116308,109.94358 C262.425825,109.94358 265.920945,113.431914 265.920945,117.748217 Z" id="Fill-67" fill="#FF8885"></path>
                <polygon id="Fill-50" fill="#000000" points="219.093124 27.8252271 267.956937 27.8252271 267.956937 25.1105708 219.093124 25.1105708"></polygon>
                <polygon id="Fill-51" fill="#000000" points="227.915757 39.0163977 276.77957 39.0163977 276.77957 36.3017414 227.915757 36.3017414"></polygon>
            </g>
        </g>
    </g>
</svg>