<svg version="1.1" xmlns="http://www.w3.org/2000/svg" width="24" height="24" viewBox="0 0 24 24">
<path fill="currentColor" d="M21 18.25c0.414 0 0.75 0.336 0.75 0.75 0 0.378-0.28 0.691-0.644 0.743l-0.004 0-0.102 0.007h-18c-0.414-0-0.75-0.336-0.75-0.75 0-0.378 0.28-0.691 0.644-0.743l0.004-0 0.102-0.007h18zM21 11.25c0.414 0 0.75 0.336 0.75 0.75 0 0.378-0.28 0.691-0.644 0.743l-0.004 0-0.102 0.007h-18c-0.414-0-0.75-0.336-0.75-0.75 0-0.378 0.28-0.691 0.644-0.743l0.004-0 0.102-0.007h18zM21 4.25c0.414 0 0.75 0.336 0.75 0.75 0 0.378-0.28 0.691-0.644 0.743l-0.004 0-0.102 0.007h-18c-0.414-0-0.75-0.336-0.75-0.75 0-0.378 0.28-0.691 0.644-0.743l0.004-0 0.102-0.007h18z"></path>
</svg>
