<svg version="1.1" xmlns="http://www.w3.org/2000/svg" width="32" height="32" viewBox="0 0 32 32">
<path fill="currentColor" opacity="0.8" d="M17.037 2.18c0.46 0.227 0.833 0.6 1.060 1.060l2.692 5.454c0.194 0.394 0.57 0.666 1.004 0.729l6.018 0.875c1.275 0.185 2.159 1.369 1.974 2.645-0.074 0.508-0.313 0.977-0.68 1.335l-4.355 4.245c-0.314 0.306-0.458 0.748-0.383 1.18l1.028 5.994c0.218 1.27-0.635 2.476-1.905 2.694-0.506 0.087-1.026 0.004-1.48-0.234l-4.123-2.167c0.634-0.415 1.261-0.838 1.882-1.27l3.172 1.666c0.065 0.034 0.139 0.046 0.211 0.034 0.169-0.029 0.286-0.18 0.277-0.346l-0.004-0.039-0.992-5.782c-0.785 0.618-1.561 1.209-2.329 1.771l-1.173 0.842-1.162 0.802c-0.805 0.545-1.622 1.075-2.451 1.59l-1.251 0.763-4.062 2.136c-0.3 0.158-0.619 0.244-0.937 0.264l-0.19 0.004c-0.823-0.015-1.613-0.467-2.024-1.248-0.239-0.454-0.321-0.974-0.234-1.48l1.028-5.994c0.074-0.433-0.069-0.874-0.383-1.18l-4.355-4.245c-0.923-0.899-0.942-2.377-0.042-3.3 0.358-0.367 0.828-0.607 1.335-0.68l6.018-0.875c0.434-0.063 0.81-0.336 1.004-0.729l2.692-5.454c0.57-1.156 1.969-1.63 3.125-1.060zM15.946 3.944l-0.040 0.010c-0.014 0.004-0.029 0.010-0.042 0.016l0.042-0.016c-0.025 0.008-0.049 0.018-0.072 0.032l0.029-0.015c-0.023 0.011-0.044 0.024-0.064 0.039l0.035-0.024c-0.026 0.015-0.050 0.034-0.071 0.056l0.036-0.032c-0.019 0.015-0.037 0.032-0.053 0.052l-0.041 0.064-2.692 5.454c-0.137 0.277-0.309 0.53-0.511 0.754-0.014 0.015-0.028 0.031-0.042 0.046-0.032 0.035-0.065 0.069-0.099 0.102-0.026 0.025-0.052 0.051-0.080 0.076s-0.056 0.051-0.084 0.075c-0.033 0.029-0.067 0.057-0.102 0.084-0.028 0.023-0.057 0.044-0.086 0.066-0.036 0.026-0.072 0.052-0.108 0.077-0.028 0.019-0.057 0.038-0.086 0.057-0.041 0.026-0.083 0.051-0.125 0.076-0.033 0.019-0.067 0.038-0.101 0.056s-0.068 0.036-0.103 0.053c-0.035 0.017-0.070 0.033-0.105 0.049-0.044 0.020-0.088 0.038-0.133 0.056-0.029 0.011-0.058 0.023-0.088 0.033-0.043 0.016-0.086 0.030-0.13 0.044-0.042 0.013-0.084 0.026-0.126 0.037-0.035 0.010-0.070 0.019-0.105 0.027-0.021 0.005-0.043 0.010-0.064 0.015l-0.080 0.016c-0.015 0.003-0.030 0.006-0.046 0.008l-0.105 0.017-6.018 0.875c-0.073 0.011-0.14 0.045-0.191 0.097l-0.056 0.077c-0.004 0.008-0.008 0.016-0.011 0.024-0.008 0.018-0.014 0.037-0.019 0.056l0.019-0.056c-0.013 0.031-0.022 0.064-0.025 0.097l0.007-0.040c-0.007 0.031-0.010 0.064-0.008 0.096l0.001-0.055c-0.003 0.028-0.002 0.056 0.001 0.083l-0.003-0.028c0.002 0.030 0.008 0.061 0.018 0.090l-0.015-0.062c0.005 0.033 0.014 0.066 0.029 0.096l-0.014-0.034c0.010 0.028 0.023 0.055 0.041 0.081l0.041 0.049 4.355 4.245c0.236 0.23 0.433 0.49 0.589 0.771 0.016 0.029 0.031 0.057 0.046 0.085 0.023 0.044 0.045 0.089 0.066 0.135 0.012 0.027 0.024 0.054 0.036 0.081 0.021 0.049 0.041 0.099 0.060 0.149 0.009 0.024 0.018 0.048 0.026 0.073 0.016 0.046 0.031 0.092 0.044 0.138 0.015 0.049 0.028 0.099 0.041 0.149 0.007 0.029 0.014 0.059 0.021 0.088 0.009 0.041 0.017 0.081 0.025 0.122 0.009 0.048 0.016 0.096 0.023 0.145 0.002 0.012 0.003 0.025 0.005 0.037 0.008 0.065 0.014 0.129 0.019 0.194 0.001 0.020 0.002 0.040 0.003 0.060 0.003 0.057 0.004 0.114 0.004 0.172-0 0.044-0.001 0.088-0.003 0.133-0.002 0.040-0.004 0.080-0.007 0.12-0.001 0.016-0.003 0.032-0.004 0.048l-0.006 0.058c-0.003 0.028-0.007 0.056-0.011 0.084l-0.017 0.108-1.028 5.994c-0.012 0.072-0.001 0.147 0.034 0.211 0.020 0.038 0.046 0.070 0.076 0.096 0.012 0.011 0.025 0.020 0.038 0.029l-0.038-0.029c0.021 0.018 0.043 0.033 0.067 0.046l-0.029-0.017c0.022 0.014 0.046 0.026 0.071 0.035l-0.042-0.018c0.028 0.014 0.058 0.025 0.089 0.031l-0.048-0.013c0.053 0.018 0.11 0.024 0.167 0.014l-0.043 0.005c0.027-0.001 0.054-0.006 0.081-0.013l0.061-0.025 0.395-0.209 3.608-1.897 1.174-0.714c1.602-0.997 3.159-2.049 4.671-3.156 1.624-1.189 3.288-2.508 4.94-3.91l0.825-0.708 3.024-2.947c0.052-0.051 0.087-0.118 0.097-0.191l0.001-0.091c-0.001-0.011-0.003-0.022-0.006-0.032-0.004-0.016-0.009-0.032-0.015-0.047l0.015 0.047c-0.007-0.030-0.018-0.059-0.033-0.086l0.018 0.038c-0.010-0.025-0.023-0.048-0.038-0.070l0.020 0.031c-0.015-0.026-0.033-0.051-0.054-0.072l0.034 0.041c-0.015-0.021-0.033-0.041-0.053-0.058l0.019 0.018c-0.018-0.018-0.037-0.034-0.059-0.048l0.040 0.030c-0.023-0.020-0.049-0.037-0.077-0.050l0.037 0.020c-0.023-0.015-0.048-0.027-0.075-0.035l-0.056-0.013-6.018-0.875c-0.139-0.020-0.275-0.049-0.408-0.086-0.024-0.007-0.048-0.013-0.071-0.021-0.034-0.010-0.069-0.021-0.103-0.033-0.048-0.016-0.096-0.033-0.142-0.052-0.027-0.010-0.054-0.021-0.080-0.032-0.045-0.019-0.090-0.039-0.133-0.059-0.041-0.019-0.082-0.040-0.123-0.061-0.030-0.016-0.059-0.032-0.089-0.048-0.042-0.023-0.083-0.048-0.124-0.073-0.028-0.018-0.057-0.036-0.085-0.054-0.038-0.025-0.074-0.050-0.11-0.076-0.030-0.022-0.060-0.044-0.090-0.067-0.029-0.022-0.057-0.045-0.085-0.068-0.040-0.033-0.078-0.066-0.116-0.1-0.022-0.020-0.045-0.041-0.067-0.062-0.034-0.033-0.068-0.066-0.101-0.101-0.022-0.023-0.043-0.046-0.064-0.069-0.035-0.039-0.070-0.079-0.104-0.12-0.016-0.020-0.032-0.040-0.048-0.060-0.038-0.048-0.074-0.097-0.109-0.147-0.011-0.016-0.022-0.032-0.033-0.048-0.033-0.049-0.065-0.099-0.095-0.149-0.006-0.011-0.013-0.021-0.019-0.032l-0.031-0.054c-0.011-0.019-0.021-0.039-0.032-0.058l-0.048-0.094-2.692-5.454c-0.032-0.066-0.086-0.119-0.151-0.151l-0.050-0.018-0.030-0.010c-0.015-0.003-0.030-0.005-0.045-0.006-0.028-0.002-0.054-0-0.081 0.005z"></path>
</svg>
