<svg version="1.1" xmlns="http://www.w3.org/2000/svg" width="24" height="24" viewBox="0 0 24 24">
<path fill="currentColor" d="M6.262 5.945c0.273-0.273 0.748-0.271 1.022 0.002v0l4.957 4.948c0.563 0.668 0.53 1.667-0.099 2.296-0.419 0.419-2.023 2.040-4.811 4.863v0l-0.072 0.063c-0.274 0.209-0.668 0.188-0.918-0.063-0.273-0.273-0.273-0.717 0-0.99v0l4.811-4.863 0.043-0.054c0.072-0.116 0.057-0.27-0.043-0.37v0l-4.89-4.842-0.063-0.072c-0.209-0.274-0.188-0.668 0.063-0.918zM11.565 5.945c0.273-0.273 0.717-0.273 0.99 0v0l4.89 4.842 0.099 0.108c0.563 0.668 0.567 1.634-0.099 2.296-0.444 0.441-2.048 2.062-4.811 4.863v0l-0.072 0.063c-0.274 0.209-0.668 0.188-0.918-0.063-0.273-0.273-0.273-0.717 0-0.99v0l4.811-4.863 0.043-0.054c0.072-0.116 0.057-0.27-0.043-0.37v0l-4.89-4.842-0.063-0.072c-0.209-0.274-0.188-0.668 0.063-0.918z"></path>
</svg>
