<svg id="icon-icon-link" viewBox="0 0 32 32">
    <path fill="currentColor"
        d="M14.829 13.2c-0.324-0.332-0.836-0.369-1.203-0.111l-0.117 0.097-0.739 0.724-0.189 0.196c-1.567 1.713-1.623 4.248-0.151 5.883l0.184 0.192 6.629 6.489 0.205 0.189c1.929 1.68 4.94 1.525 6.863-0.357 1.941-1.9 2.085-4.88 0.365-6.773l-0.192-0.199-2.561-2.508-0.113-0.096c-0.372-0.269-0.889-0.228-1.215 0.104s-0.352 0.843-0.085 1.205l0.1 0.115 2.572 2.519 0.153 0.164c1.004 1.163 0.868 2.963-0.332 4.137-1.219 1.193-3.096 1.315-4.288 0.32l-0.165-0.149-6.636-6.497-0.147-0.159c-0.768-0.915-0.703-2.287 0.137-3.259l0.167-0.177 0.721-0.707 0.111-0.124c0.277-0.365 0.247-0.884-0.077-1.216zM12.404 5.26c-1.929-1.68-4.94-1.525-6.863 0.357-1.941 1.9-2.085 4.88-0.365 6.773l0.192 0.199 2.561 2.508 0.113 0.096c0.372 0.269 0.889 0.228 1.215-0.104s0.352-0.843 0.085-1.205l-0.1-0.115-2.572-2.519-0.153-0.164c-1.004-1.163-0.868-2.963 0.332-4.137 1.219-1.193 3.096-1.315 4.288-0.32l0.165 0.149 6.636 6.497 0.147 0.159c0.768 0.915 0.703 2.287-0.137 3.259l-0.167 0.177-0.721 0.707-0.111 0.124c-0.277 0.365-0.247 0.884 0.077 1.216s0.836 0.369 1.203 0.111l0.117-0.097 0.739-0.724 0.189-0.196c1.567-1.713 1.623-4.248 0.151-5.883l-0.184-0.192-6.629-6.489-0.205-0.189z">
    </path>
</svg>