<svg version="1.1" xmlns="http://www.w3.org/2000/svg" width="24" height="24" viewBox="0 0 24 24">
<path fill="currentColor" d="M14.802 2.836c1.501 0.459 2.839 1.264 3.928 2.341l-0.001-1.252c0-0.354 0.263-0.647 0.605-0.694l0.095-0.006c0.354 0 0.647 0.263 0.694 0.605l0.006 0.095v2.653c0 0.487-0.367 0.889-0.839 0.944l-0.111 0.006h-2.653c-0.387 0-0.7-0.313-0.7-0.7 0-0.354 0.263-0.647 0.605-0.694l0.095-0.006 1.173-0.002c-0.921-0.896-2.045-1.566-3.306-1.952-4.316-1.32-8.885 1.11-10.204 5.426s1.11 8.885 5.426 10.204c4.316 1.32 8.885-1.11 10.204-5.426 0.438-1.432 0.473-2.925 0.121-4.346-0.093-0.375 0.136-0.755 0.511-0.848s0.755 0.136 0.848 0.511c0.412 1.666 0.372 3.415-0.141 5.092-1.546 5.056-6.897 7.901-11.953 6.355s-7.901-6.897-6.355-11.953c1.546-5.056 6.897-7.901 11.953-6.355z"></path>
</svg>
