<svg version="1.1" xmlns="http://www.w3.org/2000/svg" width="32" height="32" viewBox="0 0 32 32">
<path fill="currentColor" d="M15.986 4.143c3.461 0 6.267 2.806 6.267 6.267 0 2.055-0.989 3.878-2.517 5.021 1.333 0.453 2.575 1.15 3.668 2.060 0.396 0.33 0.45 0.918 0.12 1.314s-0.918 0.45-1.314 0.12c-1.736-1.445-3.917-2.25-6.224-2.25-5.376 0-9.733 4.358-9.733 9.733 0 0.515-0.418 0.933-0.933 0.933s-0.933-0.418-0.933-0.933c0-5.095 3.284-9.422 7.851-10.981-1.529-1.141-2.518-2.965-2.518-5.019 0-3.461 2.806-6.267 6.267-6.267zM26.050 17.847c0.552 0 1 0.298 1 0.667l-0 2.819 2.681 0c0.516 0 0.935 0.448 0.935 1s-0.419 1-0.935 1l-2.681-0 0 3.181c0 0.368-0.448 0.667-1 0.667s-1-0.298-1-0.667l-0-3.181-2.782 0c-0.516 0-0.935-0.448-0.935-1s0.419-1 0.935-1l2.782-0 0-2.819c0-0.368 0.448-0.667 1-0.667zM15.986 6.010c-2.43 0-4.4 1.97-4.4 4.4s1.97 4.4 4.4 4.4c2.43 0 4.4-1.97 4.4-4.4s-1.97-4.4-4.4-4.4z"></path>
</svg>
