<?xml version="1.0" encoding="UTF-8"?>
<svg width="24px" height="24px" viewBox="0 0 24 24" version="1.1" xmlns="http://www.w3.org/2000/svg" xmlns:xlink="http://www.w3.org/1999/xlink">
    <title>标为已读</title>
    <g id="PC交互稿" stroke="none" stroke-width="1" fill="none" fill-rule="evenodd">
        <g id="弹窗及交互状态" transform="translate(-1769.000000, -451.000000)">
            <g id="编组-4" transform="translate(1521.000000, 403.000000)">
                <g id="编组-7" transform="translate(0.000000, 48.000000)">
                    <g id="编组-6" transform="translate(16.000000, 0.000000)">
                        <g id="编组-5" transform="translate(192.000000, 0.000000)">
                            <g id="标为已读" transform="translate(40.000000, 0.000000)">
                                <rect id="矩形-55" fill-opacity="0" fill="#C4C4C4" fill-rule="nonzero" x="0" y="0" width="24" height="24"></rect>
                                <path d="M19,5.30005 L3,5.30005 C2.60797,5.30005 2.29999,5.60815 2.29999,6 C2.29999,6.39209 2.60797,6.69995 3,6.69995 L19,6.69995 C19.392,6.69995 19.7,6.39209 19.7,6 C19.7,5.60815 19.392,5.30005 19,5.30005 Z M3,11.3 L15,11.3 C15.392,11.3 15.7,11.6082 15.7,12 C15.7,12.3921 15.392,12.7 15,12.7 L3,12.7 C2.60797,12.7 2.29999,12.3921 2.29999,12 C2.29999,11.6082 2.60797,11.3 3,11.3 Z M21.0751,13.3992 L16.0751,20.6089 C16.0562,20.6299 15.9835,20.7168 15.9622,20.7356 C15.817,20.8633 15.6479,20.9209 15.455,20.9084 C15.2621,20.896 15.1019,20.8171 14.9742,20.6721 L12.4742,17.8289 C12.2154,17.5344 12.2433,17.0996 12.5377,16.8408 C12.8321,16.582 13.2668,16.6099 13.5256,16.9043 L15.4347,19.0757 L19.9247,12.6013 C20.1481,12.2791 20.5767,12.2017 20.8988,12.425 C21.2209,12.6484 21.2985,13.0769 21.0751,13.3992 Z M11,17.3 L3,17.3 C2.60797,17.3 2.29999,17.6082 2.29999,18 C2.29999,18.3921 2.60797,18.7 3,18.7 L11,18.7 C11.392,18.7 11.7,18.3921 11.7,18 C11.7,17.6082 11.392,17.3 11,17.3 Z" id="合并" fill="#303030"></path>
                            </g>
                        </g>
                    </g>
                </g>
            </g>
        </g>
    </g>
</svg>