<svg version="1.1" xmlns="http://www.w3.org/2000/svg" width="24" height="24" viewBox="0 0 24 24">
<path fill="currentColor" d="M21 12c0 4.971-4.029 9-9 9s-9-4.029-9-9c0-4.971 4.029-9 9-9s9 4.029 9 9z"></path>
<path fill="#fff" d="M12.989 12.989c0.208-0.208 0.532-0.231 0.766-0.069l0.083 0.069 2.271 2.271 0.032 0.035c0.2 0.237 0.186 0.59-0.035 0.81-0.196 0.196-0.497 0.229-0.73 0.092l-0.084-0.060-0.035-0.032-2.268-2.268c-0.183-0.183-0.225-0.459-0.113-0.689l0.049-0.084 0.064-0.076zM7.895 7.895c0.196-0.196 0.497-0.229 0.727-0.094l0.086 0.062 0.035 0.032 3.257 3.256 3.257-3.256c0.182-0.182 0.453-0.223 0.674-0.122l0.091 0.052 0.083 0.069c0.196 0.196 0.229 0.497 0.092 0.73l-0.060 0.084-0.032 0.035-7.362 7.362c-0.234 0.234-0.614 0.234-0.849 0-0.196-0.196-0.229-0.496-0.092-0.73l0.060-0.084 0.032-0.035 3.256-3.258-3.291-3.294c-0.2-0.237-0.186-0.59 0.035-0.81z"></path>
</svg>
