<svg version="1.1" xmlns="http://www.w3.org/2000/svg" width="24" height="24" viewBox="0 0 24 24">
<path fill="currentColor" d="M17.549 16.523l0.087 0.074 2.76 2.754c0.274 0.273 0.274 0.716 0.001 0.99-0.246 0.246-0.629 0.271-0.903 0.075l-0.087-0.074-2.76-2.754c-0.274-0.273-0.274-0.716-0.001-0.99 0.246-0.246 0.629-0.271 0.903-0.075zM10.821 3.454c4.099 0 7.423 3.323 7.423 7.423s-3.323 7.423-7.423 7.423c-4.099 0-7.423-3.323-7.423-7.423s3.323-7.423 7.423-7.423zM10.821 4.854c-3.326 0-6.023 2.696-6.023 6.023s2.696 6.023 6.023 6.023c3.326 0 6.023-2.696 6.023-6.023s-2.696-6.023-6.023-6.023z"></path>
</svg>
