<svg version="1.1" xmlns="http://www.w3.org/2000/svg" width="24" height="24" viewBox="0 0 24 24">
<path fill="currentColor" d="M21.483 8.021c0.335 0.247 0.406 0.719 0.158 1.054-0.607 0.821-1.304 1.591-2.067 2.282 0.008 0.006 0.015 0.014 0.021 0.022l2.054 2.439c0.268 0.318 0.227 0.794-0.091 1.062s-0.794 0.227-1.062-0.091l-2.054-2.439-0.031-0.042c-0.79 0.581-1.63 1.077-2.499 1.46l0.965 3.406c0.113 0.4-0.119 0.817-0.519 0.93s-0.817-0.119-0.93-0.519l-0.935-3.301c-0.838 0.24-1.691 0.371-2.543 0.371-0.507 0-1.015-0.046-1.52-0.134l-0.869 3.067c-0.113 0.4-0.53 0.633-0.93 0.519s-0.633-0.53-0.519-0.93l0.858-3.028c-1.017-0.34-2.005-0.839-2.935-1.459l-1.817 2.158c-0.268 0.318-0.743 0.359-1.062 0.091s-0.359-0.743-0.091-1.062l1.76-2.089c-0.917-0.761-1.754-1.638-2.473-2.588-0.251-0.332-0.186-0.804 0.146-1.055s0.804-0.186 1.055 0.146c2.106 2.783 5.337 4.859 8.397 4.859 3.105 0 6.391-2.144 8.478-4.968 0.247-0.335 0.719-0.406 1.054-0.158z"></path>
</svg>
