<svg version="1.1" xmlns="http://www.w3.org/2000/svg" width="24" height="24" viewBox="0 0 24 24">
<path opacity="0.8" fill="#000" d="M10.303 6.107c0.192 0 0.375 0.079 0.508 0.218l3.695 3.891c0.080 0.084 0.137 0.186 0.167 0.296 0.031 0.080 0.048 0.166 0.048 0.257 0 0.061-0.008 0.12-0.022 0.176l-0 7.842c0 1.105-0.895 2-2 2h-7.479c-1.105 0-2-0.895-2-2v-10.68c0-1.105 0.895-2 2-2zM9.484 7.506l-4.265 0c-0.331 0-0.6 0.269-0.6 0.6v10.68c0 0.331 0.269 0.6 0.6 0.6h7.479c0.331 0 0.6-0.269 0.6-0.6l-0.001-7.319-1.771 0.001c-1.088 0-1.977-0.87-2-1.959l-0.042-2.003zM8.5 17.055c0.276 0 0.5 0.224 0.5 0.5s-0.224 0.5-0.5 0.5h-2.493c-0.276 0-0.5-0.224-0.5-0.5s0.224-0.5 0.5-0.5h2.493zM17.769 3.151c1.105 0 2 0.895 2 2v10.132c0 1.105-0.895 2-2 2h-1.455c-0.387 0-0.7-0.313-0.7-0.7s0.313-0.7 0.7-0.7h1.455c0.331 0 0.6-0.269 0.6-0.6v-10.132c0-0.331-0.269-0.6-0.6-0.6h-7.464c-0.279 0-0.513 0.19-0.581 0.448l-1.414 0.001c0.077-1.034 0.941-1.849 1.994-1.849h7.464zM9.813 15.055c0.276 0 0.5 0.224 0.5 0.5s-0.224 0.5-0.5 0.5h-3.793c-0.276 0-0.5-0.224-0.5-0.5s0.224-0.5 0.5-0.5h3.793zM11.007 13.055c0.276 0 0.5 0.224 0.5 0.5s-0.224 0.5-0.5 0.5h-4.98c-0.276 0-0.5-0.224-0.5-0.5s0.224-0.5 0.5-0.5h4.98zM10.904 8.456l0.022 1.024c0.007 0.326 0.273 0.588 0.6 0.588l0.909-0.001-1.531-1.611z"></path>
</svg>
