<svg version="1.1" xmlns="http://www.w3.org/2000/svg" width="32" height="32" viewBox="0 0 32 32">
<path fill="currentColor" d="M20.66 6.389c0.175 0.101 0.332 0.221 0.47 0.359s0.258 0.295 0.359 0.47q0.152 0.263 0.228 0.546t0.076 0.587v4.072c0 0.202-0.025 0.398-0.076 0.587s-0.127 0.371-0.228 0.546c-0.101 0.175-0.221 0.332-0.359 0.47s-0.295 0.258-0.47 0.359l-3.527 2.036c-0.175 0.101-0.357 0.177-0.546 0.228s-0.385 0.076-0.587 0.076q-0.304 0-0.587-0.076v0c-0.189-0.051-0.371-0.127-0.546-0.228l-3.527-2.036c-0.175-0.101-0.332-0.221-0.47-0.359s-0.258-0.295-0.359-0.47c-0.101-0.175-0.177-0.357-0.228-0.546s-0.076-0.385-0.076-0.587v-4.072q0-0.304 0.076-0.587c0.051-0.189 0.127-0.371 0.228-0.546q0.152-0.263 0.359-0.47v-0c0.138-0.138 0.295-0.258 0.47-0.359l3.527-2.036c0.175-0.101 0.357-0.177 0.546-0.228s0.385-0.076 0.587-0.076c0.202 0 0.398 0.025 0.587 0.076q0.283 0.076 0.546 0.228l3.527 2.036zM19.726 8.006l-3.527-2.036c-0.033-0.009-0.164-0.054-0.2-0.054-0.026 0-0.104 0.024-0.157 0.041-0.019 0.006-0.035 0.011-0.043 0.013l-3.527 2.036c-0.031 0.018-0.122 0.122-0.146 0.146-0.018 0.031-0.045 0.167-0.054 0.2v4.072c0 0.036 0.045 0.167 0.054 0.2 0.018 0.031 0.122 0.122 0.146 0.146l3.527 2.036c0.031 0.018 0.167 0.045 0.2 0.054 0.036 0 0.167-0.045 0.2-0.054l3.527-2.036c0.031-0.018 0.122-0.122 0.146-0.146 0.018-0.031 0.045-0.167 0.054-0.2v-4.072c0-0.036-0.045-0.167-0.054-0.2-0.018-0.031-0.122-0.122-0.146-0.146zM12.998 8.468c0.224-0.388 0.705-0.517 1.093-0.293l1.909 1.102 1.909-1.102c0.388-0.224 0.869-0.095 1.093 0.293 0.074 0.129 0.11 0.268 0.11 0.404 0 0.275-0.144 0.539-0.403 0.688l-1.916 1.106c0.004 0.035 0.007 0.070 0.007 0.107v2.427c0 0.448-0.352 0.8-0.8 0.8s-0.8-0.352-0.8-0.8v-2.427c0-0.036 0.002-0.072 0.007-0.107l-1.916-1.106c-0.259-0.15-0.403-0.414-0.403-0.688 0-0.136 0.035-0.276 0.11-0.404zM14.348 17.613c0.175 0.101 0.332 0.221 0.47 0.359s0.258 0.295 0.359 0.47c0.101 0.175 0.177 0.357 0.228 0.546s0.076 0.385 0.076 0.587v4.072c0 0.203-0.025 0.398-0.076 0.587s-0.127 0.371-0.228 0.546-0.221 0.332-0.359 0.471c-0.138 0.138-0.295 0.258-0.47 0.359l-3.527 2.036c-0.175 0.101-0.357 0.177-0.546 0.228s-0.385 0.076-0.587 0.076q-0.303 0-0.586-0.076l-0.001-0c-0.189-0.051-0.371-0.127-0.546-0.228l-3.527-2.036q-0.263-0.152-0.47-0.359v0q-0.207-0.207-0.359-0.47t-0.228-0.546c-0.051-0.189-0.076-0.385-0.076-0.587v-4.072c0-0.203 0.025-0.398 0.076-0.587h0q0.076-0.283 0.228-0.546t0.359-0.47v0l0-0q0.207-0.207 0.47-0.359l3.527-2.036c0.175-0.101 0.357-0.177 0.546-0.228q0.283-0.076 0.587-0.076t0.587 0.076h0.001q0.283 0.076 0.546 0.228l3.527 2.036zM26.956 17.613c0.175 0.101 0.332 0.221 0.47 0.359s0.258 0.295 0.359 0.47c0.101 0.175 0.177 0.357 0.228 0.546s0.076 0.385 0.076 0.587v4.072c0 0.203-0.025 0.398-0.076 0.587s-0.127 0.371-0.228 0.546q-0.152 0.263-0.359 0.471c-0.138 0.138-0.295 0.258-0.47 0.359l-3.527 2.036c-0.175 0.101-0.357 0.177-0.546 0.228s-0.385 0.076-0.587 0.076q-0.304 0-0.587-0.076v0c-0.189-0.051-0.371-0.127-0.546-0.228l-3.527-2.036q-0.263-0.152-0.47-0.359v0q-0.207-0.207-0.359-0.47t-0.228-0.546c-0.051-0.189-0.076-0.385-0.076-0.587v-4.072c0-0.203 0.025-0.398 0.076-0.587h0q0.076-0.283 0.228-0.546c0.101-0.175 0.221-0.332 0.359-0.47s0.295-0.258 0.47-0.359l3.527-2.036c0.175-0.101 0.357-0.177 0.546-0.228s0.385-0.076 0.587-0.076c0.202 0 0.398 0.025 0.587 0.076q0.283 0.076 0.546 0.228l3.527 2.036zM13.415 19.229l-3.527-2.036c-0.033-0.009-0.164-0.054-0.2-0.054s-0.167 0.045-0.2 0.054l-3.527 2.036c-0.031 0.018-0.122 0.122-0.146 0.146-0.018 0.031-0.045 0.167-0.054 0.2v4.072c0 0.036 0.045 0.167 0.054 0.2 0.018 0.031 0.122 0.122 0.146 0.147l3.527 2.036c0.031 0.018 0.167 0.045 0.2 0.054 0.036 0 0.167-0.045 0.2-0.054l3.527-2.036c0.031-0.018 0.122-0.122 0.146-0.147 0.018-0.031 0.045-0.167 0.053-0.2v-4.072c0-0.036-0.045-0.167-0.053-0.2-0.018-0.031-0.122-0.122-0.146-0.146zM26.023 19.229l-3.527-2.036c-0.033-0.009-0.164-0.054-0.2-0.054s-0.167 0.045-0.2 0.054l-3.527 2.036c-0.031 0.018-0.122 0.122-0.146 0.146-0.018 0.031-0.045 0.167-0.054 0.2v4.072c0 0.036 0.045 0.167 0.054 0.2 0.018 0.031 0.122 0.122 0.146 0.147l3.527 2.036c0.031 0.018 0.167 0.045 0.2 0.054 0.036 0 0.167-0.045 0.2-0.054l3.527-2.036c0.031-0.018 0.122-0.122 0.146-0.147 0.018-0.031 0.045-0.167 0.053-0.2v-4.072c0-0.036-0.045-0.167-0.053-0.2-0.018-0.031-0.122-0.122-0.146-0.146zM6.686 19.691c0.224-0.388 0.705-0.517 1.093-0.293l1.909 1.102 1.909-1.102c0.388-0.224 0.869-0.095 1.093 0.293 0.074 0.129 0.11 0.268 0.11 0.405 0 0.275-0.144 0.539-0.403 0.688l-1.916 1.106c0.004 0.035 0.007 0.071 0.007 0.107v2.427c0 0.448-0.352 0.8-0.8 0.8s-0.8-0.352-0.8-0.8v-2.427c0-0.036 0.002-0.072 0.007-0.107l-1.916-1.106c-0.259-0.15-0.403-0.414-0.403-0.688 0-0.137 0.035-0.276 0.11-0.405zM19.294 19.691c0.224-0.388 0.705-0.517 1.093-0.293l1.909 1.102 1.909-1.102c0.388-0.224 0.869-0.095 1.093 0.293 0.074 0.129 0.11 0.268 0.11 0.405 0 0.275-0.144 0.539-0.403 0.688l-1.916 1.106c0.004 0.035 0.007 0.071 0.007 0.107v2.427c0 0.448-0.352 0.8-0.8 0.8s-0.8-0.352-0.8-0.8v-2.427c0-0.036 0.002-0.072 0.007-0.107l-1.916-1.106c-0.259-0.15-0.403-0.414-0.403-0.688 0-0.137 0.035-0.276 0.11-0.405z"></path>
</svg>
