<svg version="1.1" xmlns="http://www.w3.org/2000/svg" width="24" height="24" viewBox="0 0 24 24">
<path fill="currentColor" d="M10.377 3.468l-1.792 3.578c-0.108 0.215-0.314 0.364-0.552 0.398l-3.974 0.569c-0.427 0.061-0.821 0.263-1.12 0.574-0.74 0.77-0.715 1.994 0.055 2.734l2.851 2.74c0.176 0.169 0.256 0.414 0.214 0.654l-0.676 3.887c-0.072 0.417-0.006 0.846 0.188 1.221 0.491 0.948 1.658 1.318 2.606 0.827l3.591-1.861c0.212-0.11 0.463-0.11 0.675 0l3.591 1.861c0.375 0.195 0.804 0.261 1.221 0.188 1.052-0.183 1.756-1.184 1.573-2.236l-0.676-3.887c-0.042-0.24 0.039-0.486 0.214-0.654l2.851-2.74c0.311-0.299 0.513-0.693 0.574-1.12 0.151-1.057-0.583-2.037-1.64-2.188l-3.974-0.569c-0.238-0.034-0.444-0.183-0.552-0.398l-1.792-3.578c-0.187-0.373-0.49-0.676-0.863-0.863-0.955-0.478-2.116-0.092-2.594 0.863zM12.434 3.678c0.142 0.071 0.257 0.186 0.327 0.327l1.792 3.578c0.284 0.567 0.827 0.958 1.455 1.048l3.974 0.569c0.401 0.057 0.679 0.429 0.622 0.83-0.023 0.162-0.1 0.311-0.218 0.425l-2.851 2.74c-0.464 0.445-0.675 1.092-0.565 1.725l0.676 3.887c0.069 0.399-0.198 0.779-0.597 0.848-0.158 0.027-0.321 0.002-0.463-0.071l-3.591-1.861c-0.558-0.289-1.221-0.289-1.779 0l-3.591 1.861c-0.36 0.186-0.802 0.046-0.989-0.314-0.074-0.142-0.099-0.305-0.071-0.463l0.676-3.887c0.11-0.633-0.102-1.28-0.565-1.725l-2.851-2.74c-0.292-0.281-0.301-0.745-0.021-1.037 0.113-0.118 0.263-0.195 0.425-0.218l3.974-0.569c0.627-0.090 1.171-0.482 1.455-1.048l1.792-3.578c0.166-0.332 0.55-0.483 0.892-0.366l0.092 0.039z"></path>
<path fill="currentColor" d="M9.54 11.747c0.324-0.070 0.643 0.136 0.713 0.46 0.193 0.895 0.921 1.526 1.752 1.526 0.819 0 1.54-0.615 1.744-1.493 0.075-0.323 0.398-0.524 0.72-0.448s0.524 0.398 0.448 0.72c-0.327 1.406-1.518 2.421-2.913 2.421-1.414 0-2.616-1.042-2.925-2.474-0.070-0.324 0.136-0.643 0.46-0.713z"></path>
</svg>
