<?xml version="1.0" encoding="UTF-8"?>
<svg width="24px" height="24px" viewBox="0 0 24 24" version="1.1" xmlns="http://www.w3.org/2000/svg" xmlns:xlink="http://www.w3.org/1999/xlink">
    <title>已读</title>
    <g id="PC-web交互稿" stroke="none" stroke-width="1" fill="none" fill-rule="evenodd">
        <g id="交互状态" transform="translate(-854.000000, -598.000000)">
            <g id="已读" transform="translate(854.000000, 598.000000)">
                <rect id="矩形" fill-opacity="0" fill-rule="nonzero" x="0" y="0" width="24" height="24"></rect>
                <rect id="矩形" stroke-opacity="0" x="0.5" y="0.5" width="23" height="23"></rect>
                <path fill="currentColor" d="M21.7,19 L21.7,16.838 C21.7,16.446 21.392,16.138 21,16.138 C20.608,16.138 20.2999,16.446 20.2999,16.838 L20.2999,19 C20.2999,19.0414 20.2926,19.0798 20.278,19.1152 C20.2487,19.1445 20.1505,19.2634 20.1151,19.278 C20.0798,19.2927 20.0414,19.3 20,19.3 L4,19.3 C3.95858,19.3 3.92017,19.2926667 3.88477,19.278 C3.85547,19.2487 3.73657,19.1505 3.72192,19.1152 C3.70728,19.0798 3.69995,19.0414 3.69995,19 L3.69995,10.8336 L11.0592,15.9126 C11.17,15.9891 11.2867,16.0504 11.4091,16.0963 C11.593,16.1654 11.79,16.2 12,16.2 C12.2099333,16.2 12.4069,16.1654333 12.5909,16.0963 C12.7132333,16.0503667 12.8298667,15.9891333 12.9408,15.9126 L20.2999,10.8336 L20.2999,14.1508 C20.2999,14.5428 20.608,14.8508 21,14.8508 C21.392,14.8508 21.7,14.5428 21.7,14.1508 L21.7,9.90314 C21.7,9.82173 21.6945,9.74178 21.6836,9.66327 C21.7281,9.47784 21.6952,9.27497 21.576,9.10239 C21.5217,9.02354 21.455,8.95926 21.3805,8.9104 C21.3296,8.83902 21.2737,8.77245 21.213,8.71067 C21.1112,8.60719 20.9957,8.51717 20.8667,8.44064 L13.3765,4.00201 C13.1643,3.87630333 12.9435333,3.78201333 12.7142,3.71914 L12.714,3.71909 L12.714,3.71909 C12.4846,3.65622333 12.2466,3.62479 12,3.62479 C11.7533,3.62479 11.5153,3.65623 11.2859,3.71909 L11.2858,3.71912 C11.0564667,3.78199333 10.8357,3.87629 10.6235,4.00201 L3.1333,8.44064 C3.00415,8.51717 2.88867,8.60718 2.78699,8.71066 L2.78687,8.71075 C2.72615667,8.77250333 2.67037,8.83905333 2.61951,8.9104 C2.54504,8.95926 2.47827,9.02353 2.42383,9.10239 C2.30481,9.27497 2.27185,9.47783 2.31641,9.66328 C2.30542333,9.74178667 2.29993,9.82174 2.29993,9.90314 L2.29993,19 C2.29993,19.1224 2.31254333,19.2420667 2.33777,19.359 C2.35999,19.4621 2.39209,19.5631 2.43384,19.6619 C2.47534,19.7599667 2.52498,19.8525667 2.58276,19.9397 L2.58289,19.9397 C2.64506333,20.0334333 2.71671667,20.1209 2.79785,20.2021 C2.87907,20.2832333 2.96651333,20.3549 3.06018,20.4171 C3.14734,20.4749667 3.23995,20.5246333 3.33801,20.5661 C3.43689,20.6079 3.53784,20.64 3.64099,20.6622 C3.75793667,20.6874 3.87760667,20.7 4,20.7 L20,20.7 C20.1223,20.7 20.2421,20.6874 20.359,20.6622 C20.462,20.64 20.563,20.6079 20.6619,20.5661 C20.76,20.5246 20.8525,20.475 20.9398,20.4171 C21.0334,20.3549 21.121,20.2832 21.202,20.2021 C21.2832,20.1209 21.3549,20.0335 21.4171,19.9397 C21.475,19.8526 21.5247,19.76 21.566,19.6619 C21.6079,19.5631 21.6399,19.4621 21.6621,19.359 L21.6622,19.3585 C21.6874,19.2417 21.7,19.1222 21.7,19 Z M4.16748,9.45518 L11.8544,14.7604 C11.8927,14.7868 11.9412,14.8 12,14.8 C12.0587,14.8 12.1073,14.7868 12.1455,14.7604 L19.8325,9.45518 L12.6627,5.20641 C12.5605,5.14587 12.4542,5.10047 12.3438,5.0702 L12.3438,5.07019 C12.2333333,5.03993 12.1187333,5.0248 12,5.0248 C11.8812,5.0248 11.7666,5.03992 11.6561,5.0702 C11.5457,5.10046667 11.4394333,5.14587 11.3373,5.20641 L4.16748,9.45518 Z" id="合并" fill="#161616"></path>
            </g>
        </g>
    </g>
</svg>