<svg version="1.1" xmlns="http://www.w3.org/2000/svg" width="32" height="32" viewBox="0 0 32 32">
<path fill="currentColor" d="M14.631 4.714c0.73-0.593 1.753-0.634 2.524-0.122l0.161 0.118 11.718 9.455c0.345 0.278 0.546 0.698 0.546 1.141 0 0.756-0.572 1.378-1.307 1.458l-0.16 0.009-2.724-0 0 10.549c0 0.398-0.29 0.728-0.67 0.79l-0.13 0.010c-0.398 0-0.728-0.29-0.79-0.67l-0.010-0.13v-10.682c0-0.756 0.572-1.378 1.307-1.458l0.16-0.009 2.478-0-11.423-9.217c-0.168-0.136-0.398-0.155-0.583-0.057l-0.088 0.058-11.37 9.234 2.411-0.013c0.756-0.004 1.382 0.564 1.466 1.298l0.010 0.16 0 9.353c0 0.258 0.183 0.473 0.426 0.523l0.107 0.011h10.085c0.258 0 0.473-0.183 0.523-0.426l0.011-0.108v-7.558c0-0.258-0.183-0.473-0.426-0.523l-0.108-0.011h-5.624c-0.258 0-0.473 0.183-0.523 0.426l-0.011 0.108v5.122c0 0.442-0.358 0.8-0.8 0.8-0.398 0-0.728-0.29-0.79-0.67l-0.010-0.13v-5.122c0-1.113 0.852-2.027 1.939-2.125l0.194-0.009h5.624c1.113 0 2.027 0.852 2.125 1.939l0.009 0.194v7.558c0 1.113-0.852 2.027-1.939 2.125l-0.194 0.009h-10.085c-1.113 0-2.027-0.852-2.125-1.939l-0.009-0.194-0.001-9.21-2.654 0.015c-0.389 0.002-0.761-0.15-1.035-0.419l-0.112-0.122c-0.474-0.584-0.426-1.422 0.087-1.948l0.127-0.116 11.664-9.474z"></path>
</svg>
