<svg version="1.1" xmlns="http://www.w3.org/2000/svg" width="24" height="24" viewBox="0 0 24 24">
<path fill="currentColor" d="M12 2.3c-0.437 0-0.869 0.029-1.294 0.086-0.515 0.070-0.777 0.656-0.486 1.086 0.7 1.033 1.079 2.251 1.079 3.527 0 3.479-2.821 6.3-6.3 6.3-0.563 0-1.114-0.074-1.645-0.218-0.501-0.136-0.971 0.302-0.87 0.812 0.893 4.508 4.864 7.806 9.515 7.806 5.357 0 9.7-4.343 9.7-9.7s-4.343-9.7-9.7-9.7zM11.958 3.701l0.042-0.001c4.584 0 8.3 3.716 8.3 8.3s-3.716 8.3-8.3 8.3l-0.264-0.004c-3.426-0.108-6.381-2.306-7.528-5.429l-0.076-0.218 0.186 0.021c0.226 0.020 0.453 0.030 0.682 0.030 4.253 0 7.7-3.447 7.7-7.7l-0.007-0.333c-0.042-0.995-0.275-1.957-0.677-2.845l-0.058-0.121z"></path>
</svg>
