<svg version="1.1" xmlns="http://www.w3.org/2000/svg" width="24" height="24" viewBox="0 0 24 24">
<path fill="currentColor" d="M18.055 6.262c0.273 0.273 0.271 0.748-0.002 1.022v0l-4.948 4.957c-0.668 0.563-1.667 0.53-2.296-0.099-0.419-0.419-2.040-2.023-4.863-4.811v0l-0.063-0.072c-0.209-0.274-0.188-0.668 0.063-0.918 0.273-0.273 0.717-0.273 0.99 0v0l4.863 4.811 0.054 0.043c0.116 0.072 0.27 0.057 0.37-0.043v0l4.842-4.89 0.072-0.063c0.274-0.209 0.668-0.188 0.918 0.063zM18.055 11.565c0.273 0.273 0.273 0.717 0 0.99v0l-4.842 4.89-0.108 0.099c-0.668 0.563-1.634 0.567-2.296-0.099-0.441-0.444-2.062-2.048-4.863-4.811v0l-0.063-0.072c-0.209-0.274-0.188-0.668 0.063-0.918 0.273-0.273 0.717-0.273 0.99 0v0l4.863 4.811 0.054 0.043c0.116 0.072 0.27 0.057 0.37-0.043v0l4.842-4.89 0.072-0.063c0.274-0.209 0.668-0.188 0.918 0.063z"></path>
</svg>
