<svg version="1.1" xmlns="http://www.w3.org/2000/svg" width="24" height="24" viewBox="0 0 24 24">
<path opacity="0.8" fill="currentColor" d="M13.193 13.050c0.323 0 0.54 0.33 0.414 0.626l-0.436 1.023 0.77 4.357c0.033 0.189-0.027 0.382-0.151 0.51l-0.030 0.028-1.288 1.21c-0.221 0.194-0.551 0.194-0.763 0.008l-1.458-1.207c-0.161-0.141-0.232-0.357-0.189-0.566l0.901-4.351-0.416-1.019c-0.116-0.285 0.081-0.596 0.381-0.619l0.035-0.001h2.23zM12.344 15.196h-0.567l-0.796 3.846 1.091 0.903 0.954-0.896-0.682-3.853zM15.485 11.914c2.419 1.283 3.965 3.798 3.965 6.586 0 0.249-0.201 0.45-0.45 0.45s-0.45-0.201-0.45-0.45c0-2.452-1.359-4.663-3.486-5.791-0.22-0.116-0.303-0.389-0.187-0.608s0.389-0.303 0.608-0.187zM12 3.050c2.458 0 4.45 1.992 4.45 4.45s-1.992 4.45-4.45 4.45l0.013-0c-0.004 0-0.009 0-0.013 0-3.617 0-6.55 2.933-6.55 6.55 0 0.249-0.201 0.45-0.45 0.45s-0.45-0.201-0.45-0.45c0-3.354 2.216-6.19 5.264-7.124-1.352-0.763-2.264-2.213-2.264-3.876 0-2.458 1.992-4.45 4.45-4.45zM6.5 4.3c0.249 0 0.45 0.201 0.45 0.45s-0.201 0.45-0.45 0.45c-1.546 0-2.8 1.254-2.8 2.8s1.254 2.8 2.8 2.8v0l0.081 0.007c0.21 0.038 0.369 0.222 0.369 0.443 0 0.249-0.201 0.45-0.45 0.45-0.006 0-0.013-0-0.019-0-2.504 0.010-4.531 2.043-4.531 4.55 0 0.249-0.201 0.45-0.45 0.45s-0.45-0.201-0.45-0.45c0-2.329 1.461-4.316 3.516-5.097-1.059-0.649-1.766-1.819-1.766-3.153 0-2.043 1.657-3.7 3.7-3.7zM17.5 4.050c2.043 0 3.7 1.657 3.7 3.7 0 1.335-0.707 2.504-1.766 3.155 2.056 0.779 3.516 2.766 3.516 5.095 0 0.249-0.201 0.45-0.45 0.45s-0.45-0.201-0.45-0.45c0-2.513-2.037-4.55-4.55-4.55-0.249 0-0.45-0.201-0.45-0.45s0.201-0.45 0.45-0.45c1.546 0 2.8-1.254 2.8-2.8s-1.254-2.8-2.8-2.8c-0.249 0-0.45-0.201-0.45-0.45s0.201-0.45 0.45-0.45zM12.512 13.95h-0.879l0.1 0.246h0.673l0.105-0.246zM12 3.95c-1.961 0-3.55 1.589-3.55 3.55s1.589 3.55 3.55 3.55c1.961 0 3.55-1.589 3.55-3.55s-1.589-3.55-3.55-3.55z"></path>
</svg>
