<svg version="1.1" xmlns="http://www.w3.org/2000/svg" width="24" height="24" viewBox="0 0 24 24">
<path fill="currentColor" d="M18.192 17.221l0.849 0.849c0.273 0.273 0.273 0.717 0 0.99s-0.717 0.273-0.99 0l-0.849-0.849c-0.273-0.273-0.273-0.717 0-0.99s0.717-0.273 0.99 0zM5.779 17.221c0.273-0.273 0.717-0.273 0.99 0s0.273 0.717 0 0.99l-0.849 0.849c-0.273 0.273-0.717 0.273-0.99 0s-0.273-0.717 0-0.99zM12 5.3c3.7 0 6.7 3 6.7 6.7s-3 6.7-6.7 6.7c-3.7 0-6.7-3-6.7-6.7s3-6.7 6.7-6.7zM12 6.7c-2.927 0-5.3 2.373-5.3 5.3s2.373 5.3 5.3 5.3c2.927 0 5.3-2.373 5.3-5.3s-2.373-5.3-5.3-5.3zM5.921 4.909l0.849 0.849c0.273 0.273 0.273 0.717 0 0.99s-0.717 0.273-0.99 0l-0.849-0.849c-0.273-0.273-0.273-0.717 0-0.99s0.717-0.273 0.99 0zM18.050 4.909c0.273-0.273 0.717-0.273 0.99 0s0.273 0.717 0 0.99l-0.849 0.849c-0.273 0.273-0.717 0.273-0.99 0s-0.273-0.717 0-0.99zM12 1.992c0.387 0 0.7 0.313 0.7 0.7v1.2c0 0.387-0.313 0.7-0.7 0.7s-0.7-0.313-0.7-0.7v-1.2c0-0.387 0.313-0.7 0.7-0.7zM11.971 19.376c0.387 0 0.7 0.313 0.7 0.7v1.2c0 0.387-0.313 0.7-0.7 0.7s-0.7-0.313-0.7-0.7v-1.2c0-0.387 0.313-0.7 0.7-0.7zM21.977 11.999c0 0.387-0.313 0.7-0.7 0.7h-1.2c-0.387 0-0.7-0.313-0.7-0.7s0.313-0.7 0.7-0.7h1.2c0.387 0 0.7 0.313 0.7 0.7zM4.594 11.969c0 0.387-0.313 0.7-0.7 0.7h-1.2c-0.387 0-0.7-0.313-0.7-0.7s0.313-0.7 0.7-0.7h1.2c0.387 0 0.7 0.313 0.7 0.7z"></path>
</svg>
