<svg version="1.1" xmlns="http://www.w3.org/2000/svg" width="1em" height="1em" viewBox="0 0 24 24">
<path fill="currentColor" d="M18.295 3.2c0.895 0 1.605 0.748 1.605 1.653 0 0.309-0.084 0.612-0.242 0.874l-0.085 0.127-1.476 1.999c-0.23 0.311-0.668 0.377-0.979 0.147-0.283-0.209-0.363-0.59-0.203-0.891l0.055-0.088 1.476-1.999c0.034-0.046 0.054-0.106 0.054-0.169 0-0.123-0.070-0.217-0.153-0.245l-0.052-0.008h-12.59c-0.039 0-0.078 0.014-0.112 0.042-0.087 0.071-0.116 0.206-0.074 0.317l0.034 0.063 5.010 6.783c0.181 0.246 0.292 0.537 0.32 0.842l0.007 0.153 0.018 4.918c0 0.066 0.022 0.126 0.057 0.172l0.039 0.040 1.816 1.43c0.034 0.027 0.072 0.040 0.11 0.040 0.088-0 0.171-0.074 0.197-0.184l0.008-0.070-0.024-6.336c-0.001-0.311 0.083-0.616 0.242-0.879l0.086-0.128 2.149-2.909c0.23-0.311 0.668-0.377 0.979-0.147 0.283 0.209 0.363 0.59 0.203 0.891l-0.055 0.088-2.149 2.909c-0.023 0.031-0.039 0.068-0.048 0.108l-0.006 0.062 0.024 6.336c0.003 0.905-0.704 1.656-1.599 1.659-0.305 0.001-0.602-0.087-0.857-0.251l-0.124-0.089-1.816-1.43c-0.353-0.278-0.575-0.691-0.621-1.138l-0.009-0.169-0.018-4.918c-0-0.042-0.009-0.082-0.025-0.118l-0.029-0.050-5.010-6.783c-0.527-0.714-0.406-1.734 0.278-2.295 0.243-0.199 0.536-0.321 0.844-0.351l0.155-0.008h12.59z"></path>
</svg>
