<svg id="icon-icon-video" viewBox="0 0 32 32">
    <path fill="currentColor"
        d="M22.564 2.602l-18 0.871c-1.137 0.055-2.030 0.993-2.030 2.131v20.793c0 1.138 0.893 2.076 2.030 2.131l18.103 0.873c1.178 0 2.133-0.955 2.133-2.133v-22.535l-0.002-0.084c-0.058-1.196-1.058-2.104-2.235-2.047zM22.641 4.2c0.294-0.014 0.544 0.213 0.558 0.507l0.001 22.56c0 0.258-0.183 0.473-0.426 0.523l-0.12 0.011-18.013-0.871c-0.284-0.014-0.508-0.248-0.508-0.533v-20.793c0-0.285 0.223-0.519 0.508-0.533l18-0.871z">
    </path>
    <path fill="currentColor"
        d="M27.164 4.65c1.175-0.093 2.202 0.783 2.296 1.958l0.007 0.169v18.447c0 1.178-0.955 2.133-2.133 2.133l-0.168-0.007-0.569-0.045c-0.44-0.035-0.769-0.42-0.735-0.86s0.42-0.769 0.86-0.735l0.611 0.046c0.295 0 0.533-0.239 0.533-0.533v-18.447l-0.002-0.042c-0.023-0.294-0.28-0.513-0.574-0.489l-0.536 0.043c-0.44 0.035-0.826-0.294-0.861-0.734s0.294-0.826 0.734-0.861l0.536-0.043z">
    </path>
    <path fill="currentColor"
        d="M19.354 15.081l-7.764-5.607c-0.193-0.139-0.425-0.215-0.664-0.215-0.626 0-1.133 0.507-1.133 1.133v11.215c0 0.238 0.075 0.47 0.215 0.664 0.366 0.507 1.075 0.622 1.582 0.255l7.764-5.607c0.098-0.071 0.184-0.157 0.255-0.255 0.366-0.507 0.252-1.216-0.255-1.582zM17.894 15.999l-6.501 4.696v-9.392l6.501 4.696z">
    </path>
</svg>