<svg version="1.1" xmlns="http://www.w3.org/2000/svg" width="32" height="32" viewBox="0 0 32 32">
<path fill="currentColor" d="M6.17 24.183l0.025-0.084 0.118-0.365 0.030-0.087 0.032-0.089 0.050-0.134 0.002 0.001-0.002-0.001 0.104-0.262 0.067-0.157 0.046-0.104 0.101-0.22 0.086-0.177 0.088-0.173 0.078-0.146 0.078-0.142 0.117-0.201 0.104-0.172 0.086-0.137 0.051-0.079 0.103-0.154 0.106-0.153 0.107-0.148c0.122-0.165 0.248-0.327 0.38-0.485l0.134-0.158 0.145-0.163 0.146-0.158c0.12-0.127 0.243-0.251 0.369-0.372l0.135-0.127 0.127-0.115 0.088-0.077 0.006-0.002 0.19-0.163c0.074-0.061 0.149-0.122 0.225-0.181l0.116-0.089 0.243-0.179 0.174-0.121 0.124-0.084 0.123-0.081 0.171-0.107 0.101-0.061 0.103-0.061 0.189-0.108 0.010-0.004 0.023-0.014 0.085-0.046 0.166-0.087 0.144-0.073 0.149-0.072 0.162-0.076 0.13-0.058 0.154-0.065 0.224-0.091 0.136-0.052 0.241-0.086c0.999-0.344 2.050-0.533 3.123-0.555l0.327-0.003c3.421-0.058 6.169-2.851 6.169-6.278 0-3.468-2.811-6.279-6.279-6.279s-6.279 2.811-6.279 6.279c0 1.997 0.939 3.837 2.5 5.014l0.105 0.078 0.418 0.302-0.488 0.167c-0.343 0.117-0.68 0.25-1.009 0.399l-0.332 0.156-0.271 0.137-0.237 0.128-0.203 0.115-0.245 0.146-0.184 0.115-0.168 0.109-0.128 0.086-0.071 0.049c-0.156 0.108-0.309 0.22-0.46 0.336-0.082 0.063-0.163 0.127-0.243 0.192l-0.107 0.088-0.147 0.124-0.107 0.093-0.153 0.138-0.081 0.075c-0.065 0.060-0.128 0.121-0.192 0.183l-0.164 0.163-0.216 0.225c-0.109 0.116-0.215 0.235-0.319 0.356l-0.081 0.096-0.175 0.213-0.145 0.184-0.186 0.249c-0.054 0.075-0.108 0.15-0.16 0.225-0.045 0.065-0.089 0.13-0.132 0.195l-0.084 0.129-0.082 0.13-0.079 0.128-0.041 0.069-0.077 0.131-0.113 0.199-0.075 0.138c-0.069 0.128-0.135 0.257-0.198 0.387l-0.153 0.326-0.043 0.096c-0.123 0.281-0.235 0.566-0.336 0.856l-0.031 0.091-0.077 0.237-0.070 0.231-0.051 0.181-0.060 0.23-0.020 0.079-0.022 0.094c-0.016 0.068-0.031 0.135-0.046 0.203l-0.038 0.182-0.043 0.229-0.024 0.143-0.034 0.218-0.023 0.169-0.026 0.215-0.016 0.152-0.017 0.189-0.011 0.151-0.009 0.137-0.013 0.284-0.006 0.223-0 0.156c0 0.352 0.273 0.641 0.612 0.667l0.049 0.002 0.049-0.001c0.351-0.021 0.627-0.313 0.627-0.667 0-0.12 0.002-0.239 0.006-0.359l0.008-0.18 0.008-0.136 0.010-0.134c0.012-0.149 0.026-0.297 0.044-0.444l0.031-0.235 0.032-0.206 0.029-0.163 0.031-0.16c0.017-0.086 0.035-0.171 0.054-0.256l0.039-0.167 0.032-0.129 0.013 0.003-0.013-0.007 0.085-0.309zM20.667 17.167c-0.183 0.274-0.109 0.645 0.166 0.828 0.001 0.001 0.002 0.001 0.003 0.002l0.411 0.271c0.052 0.031 0.091 0.055 0.117 0.071 2.889 1.777 4.775 4.922 4.873 8.438l0.003 0.145 0.001 0.143c0 0.369 0.299 0.668 0.668 0.668s0.668-0.299 0.668-0.668c0-3.938-1.984-7.518-5.152-9.633-0.032-0.021-0.081-0.053-0.145-0.095l-0.748-0.391c-0.303-0.158-0.676-0.063-0.866 0.221zM16 5.603c2.729 0 4.942 2.213 4.942 4.942s-2.213 4.942-4.942 4.942c-2.729 0-4.942-2.213-4.942-4.942s2.213-4.942 4.942-4.942z"></path>
</svg>
