<svg version="1.1" xmlns="http://www.w3.org/2000/svg" width="24" height="24" viewBox="0 0 24 24">
<path d="M14.74 20h-8.481c-1.246 0-2.26-1.014-2.26-2.26v-8.481c0-1.246 1.014-2.26 2.26-2.26h8.48c1.246 0 2.26 1.014 2.26 2.26v8.481c0 1.246-1.014 2.26-2.26 2.26v0zM6.176 8c-0.649 0-1.176 0.528-1.176 1.177v8.647c0 0.649 0.528 1.176 1.176 1.176h8.647c0.649 0 1.176-0.528 1.176-1.176v-8.647c0-0.649-0.528-1.177-1.176-1.177h-8.647z"></path>
<path d="M20 15.069v-8.374c0-1.489-1.191-2.695-2.66-2.695h-8.753c-0.325 0-0.588 0.267-0.588 0.596s0.263 0.596 0.588 0.596h8.753c0.82 0 1.484 0.673 1.484 1.504v8.709c0 0.329 0.263 0.596 0.588 0.596s0.588-0.267 0.588-0.596v-0.335h0z"></path>
</svg>
