<svg version="1.1" xmlns="http://www.w3.org/2000/svg" width="24" height="24" viewBox="0 0 24 24">
<path fill="currentColor" d="M20.901 12.022l-0.002 0.005-0.006 0.084c-0.046 0.306-0.29 0.548-0.597 0.589l-0.095 0.006h-16.402c-0.387 0-0.7-0.313-0.7-0.7 0-0.354 0.263-0.647 0.605-0.694l0.095-0.006 14.919 0.001-5.698-5.699c-0.273-0.273-0.273-0.717 0-0.99 0.246-0.246 0.63-0.271 0.903-0.074l0.087 0.074 6.539 6.539c0.225 0.225 0.342 0.517 0.351 0.812 0 0.012 0.001 0.024 0.001 0.037l-0 0.015zM13.033 19.381c-0.246-0.246-0.27-0.63-0.073-0.903l0.074-0.087 4.574-4.571c0.273-0.273 0.717-0.273 0.99 0s0.273 0.717-0 0.99l-4.574 4.571c-0.273 0.273-0.717 0.273-0.99-0z"></path>
</svg>
