<svg version="1.1" xmlns="http://www.w3.org/2000/svg" width="32" height="32" viewBox="0 0 32 32">
<path fill="currentColor" d="M17.775 25.795c0.515 0 0.933 0.418 0.933 0.933 0 0.473-0.351 0.863-0.807 0.925l-0.127 0.009h-3.409c-0.515 0-0.933-0.418-0.933-0.933 0-0.473 0.351-0.863 0.807-0.925l0.127-0.009h3.409zM16.070 4.174c1.003 0 1.871 0.532 2.293 1.307 3.547 0.933 6.188 3.98 6.326 7.649l0.006 0.303v1.422c0 0.515-0.418 0.933-0.933 0.933-0.473 0-0.863-0.351-0.925-0.807l-0.009-0.127v-1.422c0-3.512-3.015-6.38-6.757-6.38-3.644 0-6.598 2.718-6.751 6.104l-0.006 0.276v7.371l-1.499 2.374h16.509l-1.496-2.36v-2.513c0-0.515 0.418-0.933 0.933-0.933 0.473 0 0.863 0.351 0.925 0.807l0.009 0.127-0 1.971 1.605 2.532 0.083 0.166c0.31 0.812-0.126 1.701-0.944 1.984-0.112 0.039-0.227 0.065-0.344 0.078l-0.176 0.010h-17.695c-0.854 0-1.564-0.676-1.564-1.533 0-0.122 0.015-0.244 0.044-0.362l0.055-0.174 0.083-0.166 1.606-2.547 0-6.83c0-3.803 2.686-6.992 6.331-7.951 0.421-0.776 1.29-1.308 2.293-1.308z"></path>
</svg>
