<svg version="1.1" xmlns="http://www.w3.org/2000/svg" width="32" height="32" viewBox="0 0 32 32">
<path d="M16 3.435c4.726 0 8.843 2.609 10.988 6.466 0.587-1.45 0.653-2.612 0.094-3.278-0.365-0.435-1.024-0.657-1.968-0.628-0.312 0.010-0.573-0.236-0.582-0.548s0.236-0.573 0.548-0.582c1.259-0.038 2.25 0.295 2.868 1.031 0.977 1.164 0.777 3.074-0.324 5.321 0.607 1.475 0.942 3.090 0.942 4.784 0 6.94-5.626 12.565-12.565 12.565-2.506 0-4.841-0.734-6.802-1.998-2.312 0.63-4.148 0.471-5.098-0.661-0.621-0.74-0.775-1.778-0.515-3.018 0.064-0.305 0.364-0.501 0.669-0.437s0.501 0.364 0.437 0.669c-0.196 0.93-0.092 1.622 0.274 2.059 0.534 0.637 1.613 0.79 3.042 0.518-2.793-2.305-4.573-5.793-4.573-9.697 0-6.94 5.626-12.565 12.565-12.565zM26.9 12.532l-0.16 0.258c-1.529 2.432-3.934 5.12-6.924 7.628-3.168 2.658-6.421 4.636-9.187 5.679 1.602 0.853 3.43 1.336 5.372 1.336 6.315 0 11.435-5.12 11.435-11.435 0-1.209-0.188-2.374-0.535-3.468zM16 4.565c-6.315 0-11.435 5.12-11.435 11.435 0 3.855 1.907 7.264 4.83 9.335 2.718-0.877 6.254-2.896 9.694-5.782 3.363-2.822 5.925-5.877 7.286-8.371-1.818-3.908-5.78-6.617-10.374-6.617zM11.333 15.167c1.013 0 1.833 0.821 1.833 1.833s-0.821 1.833-1.833 1.833c-1.013 0-1.833-0.821-1.833-1.833s0.821-1.833 1.833-1.833zM11.333 16.167c-0.46 0-0.833 0.373-0.833 0.833s0.373 0.833 0.833 0.833c0.46 0 0.833-0.373 0.833-0.833s-0.373-0.833-0.833-0.833zM17.833 7.833c1.289 0 2.333 1.045 2.333 2.333s-1.045 2.333-2.333 2.333c-1.289 0-2.333-1.045-2.333-2.333s1.045-2.333 2.333-2.333zM17.833 8.833c-0.736 0-1.333 0.597-1.333 1.333s0.597 1.333 1.333 1.333c0.736 0 1.333-0.597 1.333-1.333s-0.597-1.333-1.333-1.333z"></path>
</svg>
