<svg version="1.1" xmlns="http://www.w3.org/2000/svg" width="24" height="24" viewBox="0 0 24 24">
<path fill="currentColor" d="M20.047 19.523c0.387 0 0.7 0.313 0.7 0.7 0 0.354-0.263 0.647-0.605 0.694l-0.095 0.006h-15.515c-0.387 0-0.7-0.313-0.7-0.7 0-0.354 0.263-0.647 0.605-0.694l0.095-0.006h15.515zM20.047 16.356c0.387 0 0.7 0.313 0.7 0.7 0 0.354-0.263 0.647-0.605 0.694l-0.095 0.006h-6.47c-0.387 0-0.7-0.313-0.7-0.7 0-0.354 0.263-0.647 0.605-0.694l0.095-0.006h6.47zM12.661 3.721c0.859-0.859 2.252-0.859 3.111 0v0l2.118 2.118c0.859 0.859 0.859 2.252 0 3.111v0l-8.058 8.058c-0.396 0.396-0.929 0.626-1.489 0.643v0l-3.459 0.105c-0.552 0.017-1.013-0.417-1.030-0.969v0l-0-0.030 0.105-3.489c0.017-0.56 0.247-1.093 0.643-1.489v0zM14.782 4.711c-0.312-0.312-0.819-0.312-1.131 0v0l-8.058 8.058c-0.144 0.144-0.228 0.338-0.234 0.541v0l-0.092 3.034 3.034-0.092c0.163-0.005 0.319-0.059 0.449-0.155v0l0.092-0.079 8.058-8.058c0.312-0.312 0.312-0.819 0-1.131v0z"></path>
</svg>
