<?xml version="1.0" encoding="UTF-8"?>
<svg width="24px" height="24px" viewBox="0 0 24 24" version="1.1" xmlns="http://www.w3.org/2000/svg" xmlns:xlink="http://www.w3.org/1999/xlink">
    <title>消息类型</title>
    <g id="PC交互稿" stroke="none" stroke-width="1" fill="none" fill-rule="evenodd">
        <g id="弹窗及交互状态" transform="translate(-313.000000, -175.000000)">
            <g id="编组-42" transform="translate(297.000000, 163.000000)">
                <g id="消息类型" transform="translate(16.000000, 12.000000)">
                    <rect id="矩形-52" fill-opacity="0" fill="#C4C4C4" fill-rule="nonzero" x="0" y="0" width="24" height="24"></rect>
                    <path d="M11.288798,17.082775 L7.505373,20.8662 C7.280273,21.0913 7.020648,21.142825 6.726498,21.021 C6.57943133,20.9601333 6.46913133,20.8746833 6.395598,20.76465 C6.32206467,20.6546167 6.285298,20.5200167 6.285298,20.36085 L6.285298,17.29395 C6.285298,17.240975 6.258823,17.2146 6.205898,17.2146 L3.558823,17.2146 C3.142173,17.2146 2.786548,17.06715 2.4919305,16.7727 C2.3446205,16.62525 2.2341405,16.46265 2.1604855,16.2849 C2.086833,16.107175 2.050008,15.91405 2.050008,15.705575 L2.050008,4.0586 C2.050008,3.85026667 2.08683467,3.65723333 2.160488,3.4795 C2.234143,3.3016 2.34462383,3.139 2.4919305,2.9917 C2.63924217,2.8444 2.80180633,2.73396667 2.979623,2.6604 C3.15743967,2.58666667 3.35050633,2.5498 3.558823,2.5498 L20.499998,2.5498 C20.708323,2.5498 20.901398,2.586675 21.079223,2.6604 C21.257023,2.733875 21.419598,2.844475 21.566898,2.9917 C21.7142147,3.139 21.824698,3.3016 21.898348,3.4795 C21.971998,3.65723333 22.008823,3.85026667 22.008823,4.0586 L22.008823,9.882075 C22.008823,10.134275 21.810823,10.332275 21.558823,10.332275 C21.306823,10.332275 21.108823,10.134275 21.108823,9.882075 L21.108823,4.0586 C21.108823,3.652825 20.905898,3.4497 20.499998,3.4497 L3.558823,3.4497 C3.35588967,3.4497 3.20368967,3.50048333 3.102223,3.60205 C3.00073967,3.70345 2.949998,3.85563333 2.949998,4.0586 L2.949998,15.705575 C2.949998,16.111575 3.152948,16.31445 3.558823,16.31445 L6.205898,16.31445 C6.476348,16.31445 6.707198,16.41015 6.898448,16.601325 C7.089673,16.792725 7.185298,17.02345 7.185298,17.29395 L7.185298,19.913325 L10.652398,16.4463 C10.830598,16.268075 11.110598,16.268075 11.288798,16.4463 C11.466973,16.6245 11.466973,16.90455 11.288798,17.082775 Z M17.999998,7.29955 L5.999998,7.29955 C5.747998,7.29955 5.549998,7.49755 5.549998,7.74975 C5.549998,8.0017 5.747998,8.1997 5.999998,8.1997 L17.999998,8.1997 C18.251998,8.1997 18.449998,8.0017 18.449998,7.74975 C18.449998,7.49755 18.251998,7.29955 17.999998,7.29955 Z M9.999898,12.2207 L5.999898,12.2207 C5.747898,12.2207 5.549898,12.0227 5.549898,11.77075 C5.549898,11.51855 5.747898,11.32055 5.999898,11.32055 L9.999898,11.32055 C10.251898,11.32055 10.449898,11.51855 10.449898,11.77075 C10.449898,12.0227 10.251898,12.2207 9.999898,12.2207 Z" id="合并" fill="#161616"></path>
                    <path d="M21.499998,13.30005 L13.499998,13.30005 C13.247998,13.30005 13.049998,13.49805 13.049998,13.75 C13.049998,14.00195 13.247998,14.19995 13.499998,14.19995 L21.499998,14.19995 C21.751998,14.19995 21.949998,14.00195 21.949998,13.75 C21.949998,13.49805 21.751998,13.30005 21.499998,13.30005 Z M13.499998,16.30005 L21.499998,16.30005 C21.751998,16.30005 21.949998,16.49805 21.949998,16.75 C21.949998,17.00195 21.751998,17.19995 21.499998,17.19995 L13.499998,17.19995 C13.247998,17.19995 13.049998,17.00195 13.049998,16.75 C13.049998,16.49805 13.247998,16.30005 13.499998,16.30005 Z M21.499998,19.30005 L13.499998,19.30005 C13.247998,19.30005 13.049998,19.49805 13.049998,19.75 C13.049998,20.00195 13.247998,20.19995 13.499998,20.19995 L21.499998,20.19995 C21.751998,20.19995 21.949998,20.00195 21.949998,19.75 C21.949998,19.49805 21.751998,19.30005 21.499998,19.30005 Z" id="合并" fill="#000000"></path>
                </g>
            </g>
        </g>
    </g>
</svg>