<svg version="1.1" xmlns="http://www.w3.org/2000/svg" width="24" height="24" viewBox="0 0 24 24">
<path fill="currentColor" d="M12.028 4.789c1.794 0 3.578 0.6 5.242 1.658 0.326 0.208 0.422 0.64 0.215 0.966s-0.64 0.422-0.966 0.215c-1.453-0.925-2.985-1.439-4.491-1.439-2.045 0-4.153 0.957-5.97 2.53-1.428 1.236-2.473 2.745-2.473 3.279 0 0.536 1.040 2.047 2.461 3.283 1.809 1.574 3.91 2.531 5.955 2.531s4.146-0.958 5.955-2.532c1.421-1.236 2.461-2.748 2.461-3.284 0-0.448-0.785-1.685-1.934-2.806-0.277-0.27-0.282-0.713-0.012-0.99s0.713-0.282 0.99-0.012c1.398 1.365 2.356 2.874 2.356 3.808 0 2.596-5.311 7.216-9.816 7.216s-9.816-4.62-9.816-7.214c0-2.589 5.338-7.208 9.843-7.208zM11.987 8.392c2.005 0 3.63 1.625 3.63 3.63s-1.625 3.63-3.63 3.63c-2.005 0-3.63-1.625-3.63-3.63s1.625-3.63 3.63-3.63zM11.987 9.792c-1.232 0-2.23 0.998-2.23 2.23s0.998 2.23 2.23 2.23c1.232 0 2.23-0.998 2.23-2.23s-0.998-2.23-2.23-2.23z"></path>
</svg>
