<svg version="1.1" xmlns="http://www.w3.org/2000/svg" width="24" height="24" viewBox="0 0 24 24">
<path fill="currentColor" d="M12.833 2.211l0.066 0.035 7.25 4.039c0.597 0.333 0.975 0.953 1 1.633l0.001 0.071v7.987c0 0.684-0.358 1.316-0.94 1.668l-0.061 0.035-0.389 0.217c-0.217 0.121-0.491 0.043-0.612-0.174-0.115-0.206-0.051-0.462 0.141-0.592l0.033-0.020 0.389-0.217c0.316-0.176 0.518-0.502 0.537-0.86l0.002-0.057v-7.951l-7.811 4.709v8.209l0.022-0.011 3.961-2.207c0.217-0.121 0.491-0.043 0.612 0.174 0.115 0.206 0.051 0.462-0.141 0.592l-0.033 0.020-3.961 2.207c-0.568 0.317-1.255 0.328-1.832 0.035l-0.066-0.035-7.25-4.039c-0.597-0.333-0.975-0.953-1-1.633l-0.001-0.071v-7.987c0-0.684 0.358-1.316 0.94-1.668l0.061-0.035 7.25-4.039c0.568-0.317 1.255-0.328 1.832-0.035zM3.65 8.117v7.86c0 0.362 0.186 0.697 0.49 0.888l0.049 0.029 7.25 4.039v-8.135l-7.789-4.681zM11.493 3.005l-0.054 0.028-7.25 4.039c-0.087 0.049-0.166 0.108-0.234 0.177l7.921 4.758c0.008-0.001 0.015-0.002 0.023-0.002l7.987-4.811c-0.039-0.034-0.082-0.065-0.126-0.093l-0.049-0.029-7.25-4.039c-0.3-0.167-0.662-0.176-0.969-0.028z"></path>
</svg>
