<svg version="1.1" xmlns="http://www.w3.org/2000/svg" width="24" height="24" viewBox="0 0 24 24">
<path fill="currentColor" d="M21 12c0 4.971-4.029 9-9 9s-9-4.029-9-9c0-4.971 4.029-9 9-9s9 4.029 9 9z"></path>
<path fill="#fff" d="M12 13.621c-0.228 0-0.416-0.176-0.432-0.404l-0.367-5.441-0.002-0.054c0-0.408 0.306-0.745 0.701-0.795l0.1-0.006c0.027 0 0.027 0 0.054 0.002 0.441 0.030 0.775 0.412 0.745 0.853l-0.367 5.441c-0.015 0.227-0.204 0.404-0.432 0.404zM12 16.771c-0.608 0-1.1-0.492-1.1-1.1s0.492-1.1 1.1-1.1c0.608 0 1.1 0.492 1.1 1.1s-0.492 1.1-1.1 1.1z"></path>
</svg>
