<svg version="1.1" xmlns="http://www.w3.org/2000/svg" width="24" height="24" viewBox="0 0 24 24">
<path fill="currentColor" d="M21 12c0 4.971-4.029 9-9 9s-9-4.029-9-9c0-4.971 4.029-9 9-9s9 4.029 9 9z"></path>
<path fill="#fff" d="M12 10.433c-0.331 0-0.6 0.269-0.6 0.6v5.5l0.008 0.099c0.053 0.292 0.3 0.501 0.592 0.501 0.331 0 0.6-0.269 0.6-0.6v-5.5l-0.008-0.099c-0.053-0.292-0.3-0.501-0.592-0.501zM12 7.3c-0.608 0-1.1 0.492-1.1 1.1s0.492 1.1 1.1 1.1c0.608 0 1.1-0.492 1.1-1.1s-0.492-1.1-1.1-1.1z"></path>
</svg>
