<svg version="1.1" xmlns="http://www.w3.org/2000/svg" width="32" height="32" viewBox="0 0 32 32">
<path fill="currentColor" d="M17.667 3.333h-3.667c-1.289 0-2.333 1.045-2.333 2.333v6.667c0 0.552 0.448 1 1 1h6.333c0.552 0 1-0.448 1-1v-6.667c0-1.289-1.045-2.333-2.333-2.333zM17.667 5.333l0.105 0.017c0.132 0.044 0.228 0.169 0.228 0.316v5.665h-4.334l0.001-5.665c0-0.184 0.149-0.333 0.333-0.333h3.667z"></path>
<path fill="currentColor" d="M27 11.333h-22c-1.289 0-2.333 1.045-2.333 2.333v0.667c0 1.289 1.045 2.333 2.333 2.333h22c1.289 0 2.333-1.045 2.333-2.333v-0.667c0-1.289-1.045-2.333-2.333-2.333zM27 13.333c0.184 0 0.333 0.149 0.333 0.333v0.667c0 0.184-0.149 0.333-0.333 0.333h-22c-0.184 0-0.333-0.149-0.333-0.333v-0.667c0-0.184 0.149-0.333 0.333-0.333h22z"></path>
<path fill="currentColor" d="M5.333 14.667c0.552 0 1 0.448 1 1v10.667c0 0.184 0.149 0.333 0.333 0.333h18.667c0.184 0 0.333-0.149 0.333-0.333v-7.332c0-0.552 0.448-1 1-1s1 0.448 1 1v7.332c0 1.289-1.045 2.333-2.333 2.333h-18.667c-1.289 0-2.333-1.045-2.333-2.333v-10.667c0-0.552 0.448-1 1-1z"></path>
<path fill="currentColor" d="M10.92 22.654c0.552 0 1 0.448 1 1v4c0 0.552-0.448 1-1 1s-1-0.448-1-1v-4c0-0.552 0.448-1 1-1z"></path>
<path fill="currentColor" d="M15.92 21.321c0.552 0 1 0.448 1 1v5.333c0 0.552-0.448 1-1 1s-1-0.448-1-1v-5.333c0-0.552 0.448-1 1-1z"></path>
<path fill="currentColor" d="M20.92 22.654c0.552 0 1 0.448 1 1v4c0 0.552-0.448 1-1 1s-1-0.448-1-1v-4c0-0.552 0.448-1 1-1z"></path>
</svg>
