<svg version="1.1" xmlns="http://www.w3.org/2000/svg" width="32" height="32" viewBox="0 0 32 32">
<path fill="currentColor" d="M27 12.964c0.327 0 0.405 1.583 0.052 2.032-0.849 1.081-2.66 1.966-5.144 2.521l-0.308 0.066c-0.364 0.076-0.739 0.144-1.125 0.204l-0.332 0.050c-0.449 0.064-0.91 0.118-1.382 0.16l-0.716 0.056-0.548 0.031-0.742 0.026-0.377 0.007-0.379 0.002c-0.253 0-0.505-0.003-0.756-0.009l-0.742-0.026-0.548-0.031-0.716-0.056c-0.471-0.043-0.932-0.096-1.382-0.16l-0.332-0.050c-0.385-0.060-0.76-0.128-1.125-0.204l-0.308-0.066c-2.816-0.629-4.767-1.682-5.432-2.965-0.165-0.319 0.014-1.588 0.341-1.588 0.29 0 0.5 0.209 0.55 0.485l0.019 0.24c0.117 0.803 1.316 1.631 3.244 2.253l0.237 0.074 0.245 0.072 0.378 0.103 0.392 0.098c0.222 0.053 0.45 0.103 0.682 0.15l0.283 0.055 0.435 0.078 0.674 0.103 0.539 0.069 0.316 0.035 0.48 0.046 0.489 0.038 0.499 0.030 0.847 0.032 0.691 0.008 0.69-0.008 0.68-0.024 0.666-0.039 0.651-0.053 0.633-0.067 0.465-0.059 0.453-0.066 0.588-0.099 0.427-0.082c0.233-0.047 0.461-0.097 0.682-0.15l0.264-0.065 0.382-0.102 0.367-0.107 0.238-0.075c1.996-0.644 3.211-1.509 3.254-2.336l0.011-0.157c0.050-0.276 0.26-0.485 0.55-0.485z"></path>
<path fill="currentColor" d="M16.191 3.228c1.395 0.008 2.731 0.107 3.965 0.283l0.334 0.050c3.703 0.581 6.425 1.881 6.963 3.569 0.053 0.077 0.087 0.169 0.095 0.269l0.002 0.045v17.111c0 1.988-2.916 3.538-7.060 4.188l-0.334 0.050c-1.29 0.185-2.692 0.284-4.156 0.284s-2.866-0.099-4.156-0.284l-0.334-0.050c-4.088-0.642-6.982-2.16-7.058-4.109l-0.002-0.079v-16.5l0.010-0.106c-0.007-0.066-0.010-0.133-0.010-0.2 0-1.988 2.916-3.538 7.060-4.188l0.334-0.050c1.29-0.185 2.692-0.284 4.156-0.284l0.191 0.001zM20.49 23.244l-0.334 0.050c-1.29 0.185-2.692 0.284-4.156 0.284s-2.866-0.099-4.156-0.284l-0.334-0.050c-2.619-0.411-4.748-1.182-5.96-2.195l-0 3.507c0 0.678 0.71 1.347 1.918 1.912l0.19 0.086c0.097 0.043 0.197 0.085 0.299 0.126l0.209 0.082c0.142 0.054 0.288 0.106 0.439 0.157l0.23 0.076 0.118 0.037 0.24 0.072 0.247 0.070 0.253 0.068c0.043 0.011 0.086 0.022 0.129 0.033l0.262 0.064c0.133 0.031 0.268 0.062 0.405 0.091l0.277 0.057c0.093 0.019 0.187 0.037 0.282 0.055l0.288 0.052 0.293 0.049 0.298 0.046c0.050 0.007 0.1 0.015 0.151 0.022l0.305 0.041c0.102 0.013 0.206 0.026 0.309 0.038l0.314 0.035c0.105 0.011 0.211 0.022 0.318 0.032l0.322 0.028c0.108 0.009 0.217 0.017 0.326 0.025l0.33 0.021c0.276 0.016 0.556 0.028 0.839 0.036l0.341 0.008c0.171 0.003 0.344 0.005 0.518 0.005s0.346-0.002 0.518-0.005l0.341-0.008c0.283-0.008 0.563-0.020 0.839-0.036l0.33-0.021c0.109-0.008 0.218-0.016 0.326-0.025l0.322-0.028c0.107-0.010 0.213-0.020 0.318-0.032l0.314-0.035c0.104-0.012 0.207-0.025 0.309-0.038l0.305-0.041 0.3-0.044c0.050-0.008 0.099-0.015 0.148-0.023l0.293-0.049 0.288-0.052c0.095-0.018 0.189-0.036 0.282-0.055l0.277-0.057c0.137-0.029 0.272-0.060 0.405-0.091l0.262-0.064c0.043-0.011 0.086-0.022 0.129-0.033l0.253-0.068 0.247-0.070 0.24-0.072 0.118-0.037 0.23-0.076c0.151-0.051 0.298-0.104 0.439-0.157l0.209-0.082c0.103-0.041 0.202-0.083 0.299-0.126l0.19-0.086c1.178-0.55 1.882-1.2 1.917-1.86l0.001-0.052 0.001-3.508c-1.212 1.014-3.341 1.785-5.961 2.196zM26.451 9.742c-1.212 1.014-3.341 1.785-5.961 2.196l-0.334 0.050c-1.29 0.185-2.692 0.284-4.156 0.284s-2.866-0.099-4.156-0.284l-0.334-0.050c-2.619-0.411-4.748-1.182-5.96-2.195l-0 9.313c0 0.678 0.71 1.347 1.918 1.912l0.19 0.086c0.097 0.043 0.197 0.085 0.299 0.126l0.209 0.082c0.142 0.054 0.288 0.106 0.439 0.157l0.23 0.076 0.118 0.037 0.24 0.072 0.247 0.070 0.253 0.068c0.043 0.011 0.086 0.022 0.129 0.033l0.262 0.064c0.133 0.031 0.268 0.062 0.405 0.091l0.277 0.057c0.093 0.019 0.187 0.037 0.282 0.055l0.288 0.052 0.293 0.049 0.298 0.046c0.050 0.007 0.1 0.015 0.151 0.022l0.305 0.041c0.102 0.013 0.206 0.026 0.309 0.038l0.314 0.035c0.105 0.011 0.211 0.022 0.318 0.032l0.322 0.028c0.108 0.009 0.217 0.017 0.326 0.025l0.33 0.021c0.276 0.016 0.556 0.028 0.839 0.036l0.341 0.008c0.171 0.003 0.344 0.005 0.518 0.005s0.346-0.002 0.518-0.005l0.341-0.008c0.283-0.008 0.563-0.020 0.839-0.036l0.33-0.021c0.109-0.008 0.218-0.016 0.326-0.025l0.322-0.028c0.107-0.010 0.213-0.020 0.318-0.032l0.314-0.035c0.104-0.012 0.207-0.025 0.309-0.038l0.305-0.041 0.3-0.044c0.050-0.008 0.099-0.015 0.148-0.023l0.293-0.049 0.288-0.052c0.095-0.018 0.189-0.036 0.282-0.055l0.277-0.057c0.137-0.029 0.272-0.060 0.405-0.091l0.262-0.064c0.043-0.011 0.086-0.022 0.129-0.033l0.253-0.068 0.247-0.070 0.24-0.072 0.118-0.037 0.23-0.076c0.151-0.051 0.298-0.104 0.439-0.157l0.209-0.082c0.103-0.041 0.202-0.083 0.299-0.126l0.19-0.086c1.178-0.55 1.882-1.2 1.917-1.86l0.001-0.052v-0.006l0.001-9.307zM16.26 4.329l-0.433-0.001c-0.115 0.001-0.23 0.002-0.344 0.004l-0.341 0.008c-0.283 0.008-0.563 0.020-0.839 0.036l-0.33 0.021c-0.109 0.008-0.218 0.016-0.326 0.025l-0.322 0.028c-0.107 0.010-0.213 0.020-0.318 0.032l-0.314 0.035c-0.104 0.012-0.207 0.025-0.309 0.038l-0.305 0.041c-0.050 0.007-0.101 0.014-0.151 0.022l-0.298 0.046-0.293 0.049-0.288 0.052c-0.095 0.018-0.189 0.036-0.282 0.055l-0.277 0.057c-0.137 0.029-0.272 0.060-0.405 0.091l-0.262 0.064c-0.043 0.011-0.086 0.022-0.129 0.033l-0.253 0.068-0.247 0.070-0.24 0.072-0.118 0.037-0.23 0.076c-0.151 0.051-0.298 0.104-0.439 0.157l-0.209 0.082c-0.103 0.041-0.202 0.083-0.299 0.126l-0.19 0.086c-1.209 0.565-1.918 1.234-1.918 1.912s0.71 1.347 1.918 1.912l0.19 0.086c0.097 0.043 0.197 0.085 0.299 0.126l0.209 0.082c0.142 0.054 0.288 0.106 0.439 0.157l0.23 0.076 0.118 0.037 0.24 0.072 0.247 0.070 0.253 0.068c0.043 0.011 0.086 0.022 0.129 0.033l0.262 0.064c0.133 0.031 0.268 0.062 0.405 0.091l0.277 0.057c0.093 0.019 0.187 0.037 0.282 0.055l0.288 0.052 0.293 0.049c0.049 0.008 0.099 0.016 0.148 0.023l0.3 0.044 0.305 0.041c0.102 0.013 0.206 0.026 0.309 0.038l0.314 0.035c0.105 0.011 0.211 0.022 0.318 0.032l0.322 0.028c0.108 0.009 0.217 0.017 0.326 0.025l0.33 0.021c0.276 0.016 0.556 0.028 0.839 0.036l0.341 0.008c0.171 0.003 0.344 0.005 0.518 0.005s0.346-0.002 0.518-0.005l0.341-0.008c0.283-0.008 0.563-0.020 0.839-0.036l0.33-0.021c0.109-0.008 0.218-0.016 0.326-0.025l0.322-0.028c0.107-0.010 0.213-0.020 0.318-0.032l0.314-0.035c0.104-0.012 0.207-0.025 0.309-0.038l0.305-0.041c0.050-0.007 0.101-0.014 0.151-0.022l0.298-0.046 0.293-0.049 0.288-0.052c0.095-0.018 0.189-0.036 0.282-0.055l0.277-0.057c0.137-0.029 0.272-0.060 0.405-0.091l0.262-0.064c0.043-0.011 0.086-0.022 0.129-0.033l0.253-0.068 0.247-0.070 0.24-0.072 0.118-0.037 0.23-0.076c0.151-0.051 0.298-0.104 0.439-0.157l0.209-0.082c0.103-0.041 0.202-0.083 0.299-0.126l0.19-0.086c1.209-0.565 1.918-1.234 1.918-1.912s-0.71-1.347-1.918-1.912l-0.19-0.086c-0.097-0.043-0.197-0.085-0.299-0.126l-0.209-0.082c-0.142-0.054-0.288-0.106-0.439-0.157l-0.23-0.076-0.118-0.037-0.24-0.072-0.247-0.070-0.253-0.068c-0.043-0.011-0.086-0.022-0.129-0.033l-0.262-0.064c-0.133-0.031-0.268-0.062-0.405-0.091l-0.277-0.057c-0.093-0.019-0.187-0.037-0.282-0.055l-0.288-0.052-0.367-0.061-0.074-0.012-0.3-0.044-0.305-0.041c-0.102-0.013-0.206-0.026-0.309-0.038l-0.314-0.035c-0.105-0.011-0.211-0.022-0.318-0.032l-0.322-0.028c-0.108-0.009-0.217-0.017-0.326-0.025l-0.33-0.021c-0.276-0.016-0.556-0.028-0.839-0.036l-0.341-0.008-0.258-0.003z"></path>
</svg>
