<svg version="1.1" xmlns="http://www.w3.org/2000/svg" width="24" height="24" viewBox="0 0 24 24">
<path fill="currentColor" d="M19.5 9.55c0.801 0 1.45 0.649 1.45 1.45v9.5c0 0.801-0.649 1.45-1.45 1.45h-11c-0.801 0-1.45-0.649-1.45-1.45v-9.5c0-0.801 0.649-1.45 1.45-1.45h11zM20.049 13.424h-12.1l0.001 7.076c0 0.304 0.246 0.55 0.55 0.55h11c0.304 0 0.55-0.246 0.55-0.55l-0.001-7.076zM18.75 2.050c0.782 0 1.42 0.619 1.449 1.394l0.001 0.056v4.619c0 0.249-0.201 0.45-0.45 0.45-0.236 0-0.43-0.182-0.448-0.413l-0.002-0.037v-4.619c0-0.291-0.225-0.528-0.511-0.549l-0.039-0.001h-14.25c-0.291 0-0.528 0.225-0.549 0.511l-0.001 0.039v14.75c0 0.291 0.225 0.528 0.511 0.549l0.039 0.001h1.931c0.249 0 0.45 0.201 0.45 0.45 0 0.236-0.182 0.43-0.413 0.448l-0.037 0.002h-1.931c-0.782 0-1.42-0.619-1.449-1.394l-0.001-0.056v-14.75c0-0.782 0.619-1.42 1.394-1.449l0.056-0.001h14.25zM14.898 15.155c0.179 0.077 0.268 0.277 0.21 0.459l-0.013 0.034-1.5 3.5c-0.082 0.19-0.302 0.279-0.492 0.197-0.179-0.077-0.268-0.277-0.21-0.459l0.013-0.034 1.5-3.5c0.082-0.19 0.302-0.279 0.492-0.197zM15.457 15.766c0.129-0.162 0.365-0.188 0.527-0.059l1.5 1.198 0.028 0.024c0.166 0.161 0.148 0.439-0.046 0.576l-1.5 1.052-0.031 0.019c-0.166 0.094-0.38 0.049-0.492-0.111l-0.019-0.031c-0.094-0.166-0.049-0.38 0.111-0.492l1.090-0.765-1.109-0.885-0.029-0.025c-0.136-0.133-0.151-0.35-0.030-0.502zM12.543 15.766c0.121 0.152 0.106 0.369-0.030 0.502l-0.029 0.025-1.109 0.885 1.090 0.765c0.16 0.112 0.205 0.326 0.111 0.492l-0.019 0.031c-0.112 0.16-0.326 0.205-0.492 0.111l-0.031-0.019-1.5-1.052c-0.195-0.136-0.213-0.414-0.046-0.576l0.028-0.024 1.5-1.198c0.162-0.129 0.398-0.103 0.527 0.059zM19.5 10.45h-11c-0.304 0-0.55 0.246-0.55 0.55l-0.001 1.424h12.1l0.001-1.424c0-0.304-0.246-0.55-0.55-0.55zM11.5 10.912c0.276 0 0.5 0.224 0.5 0.5s-0.224 0.5-0.5 0.5c-0.276 0-0.5-0.224-0.5-0.5s0.224-0.5 0.5-0.5zM13.5 10.912c0.276 0 0.5 0.224 0.5 0.5s-0.224 0.5-0.5 0.5c-0.276 0-0.5-0.224-0.5-0.5s0.224-0.5 0.5-0.5zM9.5 10.912c0.276 0 0.5 0.224 0.5 0.5s-0.224 0.5-0.5 0.5c-0.276 0-0.5-0.224-0.5-0.5s0.224-0.5 0.5-0.5z"></path>
</svg>
