<svg version="1.1" xmlns="http://www.w3.org/2000/svg" width="32" height="32" viewBox="0 0 32 32">
<path fill="currentColor" d="M10.089 11.644c0-3.265 2.646-5.911 5.911-5.911s5.911 2.647 5.911 5.911c0 3.264-2.645 5.909-5.908 5.911h-0.003q-0.887 0-1.73 0.192h-0c-0.441 0.1-0.874 0.24-1.297 0.419-0.433 0.183-0.843 0.401-1.23 0.655h-0q-0.667 0.437-1.242 1.012c-0.384 0.384-0.721 0.798-1.012 1.242-0.253 0.387-0.472 0.797-0.655 1.23-0.179 0.423-0.319 0.856-0.419 1.297-0.128 0.562-0.192 1.139-0.192 1.73 0 0.523-0.411 0.933-0.933 0.933s-0.933-0.411-0.933-0.933q0-1.076 0.228-2.101v0 0 0q0.188-0.844 0.53-1.653 0.346-0.817 0.826-1.546v0 0 0q0.537-0.815 1.241-1.519t1.519-1.241c0.486-0.32 1.001-0.595 1.546-0.826q0.098-0.042 0.198-0.081c-1.43-1.079-2.354-2.792-2.354-4.722zM8.080 7.405v0q0.525-0.116 1.075-0.116c0.523 0 0.933 0.411 0.933 0.933s-0.411 0.933-0.933 0.933c-0.241 0-0.475 0.026-0.704 0.079-0.172 0.040-0.341 0.095-0.507 0.165-0.171 0.072-0.333 0.159-0.486 0.258q-0.27 0.176-0.503 0.409c-0.155 0.155-0.291 0.323-0.409 0.503-0.1 0.153-0.186 0.315-0.258 0.486q-0.105 0.248-0.165 0.507-0.079 0.343-0.079 0.704c0 0.241 0.026 0.475 0.079 0.704 0.040 0.173 0.095 0.342 0.165 0.507 0.072 0.171 0.159 0.333 0.258 0.487q0.176 0.27 0.409 0.503c0.155 0.155 0.323 0.291 0.503 0.409 0.153 0.1 0.315 0.186 0.486 0.258 0.166 0.070 0.335 0.125 0.507 0.165 0.228 0.053 0.463 0.079 0.704 0.079h0c0.523 0 0.933 0.411 0.933 0.933s-0.411 0.933-0.933 0.933q-0.606 0-1.182 0.132c-0.298 0.068-0.59 0.163-0.876 0.284-0.293 0.124-0.571 0.272-0.833 0.443-0.303 0.198-0.586 0.429-0.848 0.69s-0.492 0.545-0.69 0.848c-0.172 0.262-0.319 0.54-0.444 0.834-0.121 0.286-0.215 0.578-0.284 0.876v0q-0.132 0.576-0.132 1.182c0 0.523-0.411 0.933-0.933 0.933s-0.933-0.411-0.933-0.933c0-0.53 0.056-1.048 0.168-1.554 0.093-0.419 0.224-0.83 0.395-1.232 0.171-0.405 0.376-0.788 0.614-1.149v0q0.398-0.603 0.919-1.125c0.348-0.348 0.723-0.654 1.125-0.919q0.371-0.245 0.773-0.442c-0.124-0.102-0.243-0.211-0.358-0.326-0.241-0.241-0.453-0.501-0.637-0.78-0.166-0.252-0.309-0.519-0.429-0.802q-0.179-0.423-0.276-0.863v-0c-0.077-0.35-0.116-0.708-0.116-1.075s0.039-0.725 0.116-1.075c0.065-0.294 0.157-0.581 0.276-0.863 0.12-0.283 0.263-0.55 0.429-0.802q0.276-0.418 0.637-0.78t0.779-0.637v0 0q0.378-0.25 0.802-0.429 0.423-0.179 0.863-0.276l0-0zM16 7.6c-2.234 0-4.044 1.811-4.044 4.044s1.811 4.044 4.044 4.044c2.234 0 4.044-1.811 4.044-4.044s-1.811-4.044-4.044-4.044zM20.512 16.807q0.527 0.279 1.012 0.619c0.378 0.265 0.737 0.557 1.077 0.876 0.331 0.311 0.638 0.642 0.92 0.993 0.253 0.315 0.487 0.647 0.701 0.995q0.368 0.599 0.643 1.239c0.159 0.37 0.294 0.75 0.406 1.14 0.097 0.337 0.174 0.677 0.233 1.020 0.093 0.54 0.139 1.088 0.139 1.644 0 0.523-0.411 0.933-0.933 0.933s-0.933-0.411-0.933-0.933c0-0.469-0.041-0.93-0.122-1.383-0.046-0.258-0.106-0.513-0.178-0.765-0.088-0.309-0.195-0.609-0.32-0.902-0.149-0.349-0.324-0.688-0.525-1.015q-0.255-0.415-0.557-0.792c-0.23-0.287-0.48-0.558-0.751-0.812-0.279-0.262-0.574-0.502-0.885-0.718q-0.384-0.267-0.801-0.488c-0.319-0.169-0.499-0.487-0.499-0.819 0-0.149 0.036-0.3 0.112-0.443 0.245-0.462 0.8-0.632 1.262-0.387zM22.845 6.978c0.367 0 0.725 0.039 1.075 0.116q0.441 0.097 0.863 0.276c0.283 0.12 0.55 0.263 0.802 0.429 0.279 0.184 0.539 0.396 0.779 0.637q0.361 0.361 0.637 0.78v0c0.166 0.252 0.309 0.52 0.429 0.802q0.179 0.423 0.276 0.863c0.077 0.35 0.116 0.708 0.116 1.075s-0.039 0.725-0.116 1.075c-0.065 0.294-0.157 0.581-0.276 0.863-0.12 0.283-0.263 0.55-0.429 0.802-0.184 0.279-0.396 0.539-0.637 0.779-0.115 0.115-0.235 0.224-0.358 0.326 0.268 0.132 0.526 0.279 0.773 0.442 0.402 0.265 0.777 0.571 1.125 0.919s0.654 0.723 0.919 1.125c0.238 0.361 0.443 0.744 0.614 1.149 0.17 0.402 0.302 0.813 0.395 1.232 0.112 0.505 0.168 1.023 0.168 1.554 0 0.523-0.411 0.933-0.933 0.933s-0.933-0.411-0.933-0.933c0-0.404-0.044-0.798-0.132-1.183v-0.001q-0.102-0.447-0.283-0.875c-0.124-0.293-0.272-0.571-0.444-0.834-0.198-0.303-0.428-0.586-0.69-0.848s-0.545-0.492-0.848-0.69c-0.262-0.171-0.54-0.319-0.833-0.443-0.286-0.121-0.578-0.215-0.876-0.284-0.384-0.088-0.778-0.132-1.182-0.132-0.523 0-0.933-0.411-0.933-0.933 0-0.513 0.396-0.919 0.906-0.933 0.009-0 0.018-0 0.027-0h0c0.241 0 0.475-0.026 0.704-0.079 0.172-0.040 0.341-0.095 0.507-0.165 0.171-0.072 0.333-0.159 0.486-0.258 0.18-0.117 0.348-0.253 0.503-0.409s0.291-0.323 0.409-0.503c0.1-0.153 0.186-0.315 0.258-0.487 0.070-0.166 0.125-0.335 0.165-0.507 0.053-0.228 0.079-0.463 0.079-0.704q0-0.361-0.079-0.703l-0-0c-0.040-0.172-0.095-0.342-0.165-0.507-0.072-0.171-0.158-0.333-0.258-0.486-0.117-0.18-0.253-0.347-0.409-0.503s-0.323-0.291-0.503-0.409c-0.153-0.1-0.315-0.186-0.486-0.258-0.166-0.070-0.335-0.125-0.507-0.165-0.229-0.053-0.463-0.079-0.704-0.079-0.523 0-0.933-0.411-0.933-0.933s0.411-0.933 0.933-0.933z"></path>
</svg>
