<svg version="1.1" xmlns="http://www.w3.org/2000/svg" width="24" height="24" viewBox="0 0 24 24">
<path fill="currentColor" d="M11.664 3.425c0.387 0 0.7 0.313 0.7 0.7s-0.313 0.7-0.7 0.7h-6.474c-0.331 0-0.6 0.269-0.6 0.6v0 13.374c0 0.331 0.269 0.6 0.6 0.6v0h13.624c0.331 0 0.6-0.269 0.6-0.6v0-6.227c0-0.387 0.313-0.7 0.7-0.7s0.7 0.313 0.7 0.7v0 6.227c0 1.105-0.895 2-2 2v0h-13.624c-1.105 0-2-0.895-2-2v0-13.374c0-1.105 0.895-2 2-2v0h6.474zM18.815 3.422c1.105 0 2 0.895 2 2v0 3.95c0 0.387-0.313 0.7-0.7 0.7s-0.7-0.313-0.7-0.7v-3.515l-4.932 4.887c-0.126 0.125-0.301 0.203-0.493 0.203-0.387 0-0.7-0.313-0.7-0.7 0-0.194 0.079-0.37 0.207-0.497l4.974-4.929-3.606 0.001c-0.387 0-0.7-0.313-0.7-0.7s0.313-0.7 0.7-0.7v0h3.95z"></path>
</svg>
