<svg version="1.1" xmlns="http://www.w3.org/2000/svg" width="32" height="32" viewBox="0 0 32 32">
<path fill="currentColor" d="M27.248 22.601v1.133q0 0.275-0.057 0.537c-0.033 0.153-0.081 0.303-0.143 0.449s-0.135 0.283-0.221 0.413c-0.093 0.14-0.2 0.271-0.321 0.392s-0.252 0.228-0.392 0.321c-0.13 0.086-0.267 0.16-0.413 0.221s-0.296 0.109-0.449 0.143c-0.175 0.038-0.354 0.057-0.537 0.057h-18.133q-0.275 0-0.537-0.057h-0q-0.229-0.050-0.449-0.143c-0.146-0.062-0.283-0.135-0.413-0.221-0.14-0.093-0.271-0.2-0.392-0.321q-0.182-0.182-0.321-0.392v0c-0.086-0.13-0.16-0.267-0.221-0.413s-0.11-0.296-0.143-0.449c-0.038-0.175-0.057-0.354-0.057-0.537v-15.467q0-0.275 0.057-0.537v0q0.050-0.229 0.143-0.449 0.092-0.219 0.221-0.413 0.139-0.21 0.321-0.392t0.392-0.321q0.194-0.129 0.413-0.221 0.22-0.093 0.449-0.143c0.175-0.038 0.354-0.057 0.537-0.057h18.133c0.183 0 0.362 0.019 0.537 0.057 0.153 0.033 0.302 0.081 0.449 0.143s0.283 0.135 0.413 0.221c0.14 0.093 0.271 0.2 0.392 0.321s0.228 0.252 0.321 0.392c0.086 0.13 0.16 0.267 0.221 0.413s0.11 0.296 0.143 0.449c0.038 0.175 0.057 0.354 0.057 0.537v1.011c0 0.523-0.411 0.933-0.933 0.933s-0.933-0.411-0.933-0.933v-1.011q0-0.138-0.049-0.256c-0.033-0.079-0.081-0.15-0.146-0.215q-0.098-0.098-0.216-0.146c-0.078-0.033-0.164-0.049-0.256-0.049h-18.133c-0.092 0-0.177 0.016-0.256 0.049q-0.118 0.049-0.215 0.146t-0.146 0.215c-0.033 0.079-0.049 0.164-0.049 0.256v15.467c0 0.092 0.016 0.177 0.049 0.256s0.081 0.15 0.146 0.216c0.065 0.065 0.137 0.114 0.215 0.146s0.164 0.049 0.256 0.049h18.133c0.092 0 0.177-0.016 0.256-0.049s0.15-0.081 0.216-0.146c0.065-0.065 0.114-0.137 0.146-0.216s0.049-0.164 0.049-0.256v-1.133c0-0.523 0.411-0.933 0.933-0.933s0.933 0.411 0.933 0.933zM25.15 20.808l3.651-3.733c0.074-0.074 0.139-0.154 0.195-0.239 0.055-0.083 0.101-0.171 0.139-0.265 0.035-0.088 0.063-0.178 0.081-0.269 0.020-0.098 0.030-0.199 0.030-0.301s-0.010-0.203-0.030-0.301c-0.018-0.091-0.045-0.181-0.081-0.269-0.054-0.135-0.124-0.257-0.21-0.366-0.036-0.046-0.075-0.089-0.116-0.131l-3.658-3.741c-0.365-0.374-0.946-0.38-1.32-0.015s-0.38 0.946-0.015 1.32l2.513 2.57h-11.835c-0.523 0-0.933 0.411-0.933 0.933s0.411 0.933 0.933 0.933h11.835l-2.513 2.57c-0.366 0.374-0.359 0.954 0.015 1.32s0.954 0.359 1.32-0.015z"></path>
</svg>
