<svg id="icon-24pxpdf" viewBox="0 0 32 32">
    <path fill="currentColor"
        d="M11.246 25.595v-1.507h0.884c1.071 0 1.607-0.455 1.607-1.366-0.054-0.83-0.569-1.259-1.547-1.286v0h-1.748v4.158h0.804zM12.049 23.485h-0.804v-1.426h0.804c0.549 0.013 0.837 0.241 0.864 0.683 0 0.482-0.288 0.73-0.864 0.743v0zM16.034 25.595c1.332-0.036 1.979-0.739 1.941-2.11-0.027-1.339-0.763-2.022-2.21-2.049v0h-1.346v4.158l1.615 0zM15.746 24.992h-0.542v-2.913h0.542c0.897 0.027 1.359 0.502 1.386 1.426 0 0.991-0.462 1.487-1.386 1.487v0zM19.522 25.595v-1.708h1.888v-0.663h-1.888v-1.145h2.15v-0.643h-2.953v4.158h0.804z">
    </path>
    <path fill="currentColor"
        d="M19.118 1.867c0.172 0 0.338 0.055 0.474 0.156l0.096 0.084 6.216 6.327c0.118 0.12 0.194 0.272 0.22 0.436l0.010 0.124v12.835c0 0.442-0.358 0.8-0.8 0.8-0.398 0-0.728-0.29-0.79-0.67l-0.010-0.13v-12.508l-5.751-5.853h-10.783c-0.258 0-0.473 0.183-0.522 0.426l-0.011 0.108v24c0 0.258 0.183 0.473 0.426 0.523l0.107 0.011h16c0.258 0 0.473-0.183 0.523-0.426l0.011-0.108v-3.008c0-0.442 0.358-0.8 0.8-0.8 0.398 0 0.728 0.29 0.79 0.67l0.010 0.13v3.008c0 1.113-0.852 2.027-1.939 2.125l-0.194 0.009h-16c-1.113 0-2.027-0.852-2.125-1.939l-0.009-0.194v-24c0-1.113 0.852-2.027 1.939-2.125l0.194-0.009h11.118z">
    </path>
    <path fill="currentColor"
        d="M18.667 1.867c0.398 0 0.728 0.29 0.79 0.67l0.010 0.13v5.333c0 0.258 0.183 0.473 0.426 0.523l0.108 0.011h5.333c0.442 0 0.8 0.358 0.8 0.8 0 0.398-0.29 0.728-0.67 0.79l-0.13 0.010h-5.333c-1.113 0-2.027-0.852-2.125-1.939l-0.009-0.194v-5.333c0-0.442 0.358-0.8 0.8-0.8z">
    </path>
</svg>