<svg version="1.1" xmlns="http://www.w3.org/2000/svg" width="32" height="32" viewBox="0 0 32 32">
<path fill="currentColor" d="M22.912 6.522c-0.268 0.44-0.842 0.58-1.282 0.313-4.101-2.493-9.485-1.846-12.988 1.658-3.49 3.49-4.117 8.801-1.742 12.848l0.375-1.355c0.126-0.456 0.568-0.739 1.023-0.677l0.124 0.025c0.456 0.126 0.739 0.568 0.677 1.023l-0.025 0.124-0.868 3.148c-0.171 0.62-0.775 1.006-1.396 0.918l-0.144-0.029-3.131-0.815c-0.499-0.13-0.798-0.639-0.668-1.138 0.119-0.457 0.557-0.747 1.014-0.692l0.125 0.024 1.247 0.324c-2.757-4.764-2.009-10.972 2.069-15.050 4.112-4.112 10.442-4.873 15.278-1.933 0.44 0.268 0.581 0.842 0.313 1.282zM29.243 9.275c-0.119 0.457-0.557 0.747-1.014 0.692l-0.125-0.024-1.247-0.325c2.712 4.756 1.949 10.925-2.108 14.982-4.091 4.091-10.38 4.867-15.21 1.974-0.442-0.265-0.586-0.838-0.321-1.28s0.838-0.586 1.28-0.321c4.096 2.453 9.445 1.793 12.931-1.692 3.47-3.47 4.11-8.742 1.78-12.782l-0.375 1.357c-0.126 0.456-0.568 0.739-1.023 0.677l-0.124-0.025c-0.456-0.126-0.739-0.568-0.677-1.023l0.025-0.124 0.868-3.148c0.171-0.62 0.775-1.006 1.396-0.918l0.144 0.029 3.131 0.815c0.499 0.13 0.798 0.639 0.668 1.138z"></path>
</svg>
