<svg version="1.1" xmlns="http://www.w3.org/2000/svg" width="24" height="24" viewBox="0 0 24 24">
<path fill="currentColor" d="M21 12c0 4.971-4.029 9-9 9s-9-4.029-9-9c0-4.971 4.029-9 9-9s9 4.029 9 9z"></path>
<path fill="#fff" d="M16.21 8.679l-5.225 5.212-0.043 0.032c-0.047 0.026-0.12 0.016-0.169-0.032l-2.478-2.465-0.076-0.064c-0.244-0.169-0.567-0.14-0.772 0.066-0.234 0.235-0.233 0.615 0.002 0.849l2.478 2.465 0.105 0.094c0.538 0.431 1.312 0.391 1.8-0.096l5.225-5.212 0.064-0.076c0.17-0.244 0.143-0.567-0.063-0.773-0.234-0.235-0.614-0.235-0.849-0.001z"></path>
</svg>
