<svg version="1.1" xmlns="http://www.w3.org/2000/svg" width="32" height="32" viewBox="0 0 32 32">
<path fill="currentColor" d="M27.050 8.413c-0.078-0.071-0.164-0.134-0.258-0.189l-6.169-3.614c-0.119-0.070-0.244-0.123-0.373-0.158s-0.263-0.053-0.401-0.053c-0.139-0-0.272 0.017-0.401 0.052h-0q-0.194 0.052-0.373 0.157l-3.075 1.789-3.075-1.789c-0.12-0.070-0.244-0.122-0.374-0.157s-0.263-0.052-0.402-0.052-0.272 0.018-0.401 0.053c-0.129 0.035-0.254 0.088-0.373 0.158l-6.169 3.614q-0.14 0.082-0.258 0.189v0q-0.108 0.098-0.197 0.218c-0.058 0.078-0.108 0.16-0.15 0.246-0.044 0.090-0.079 0.185-0.105 0.284q-0.039 0.149-0.048 0.299v0c-0.006 0.096-0.002 0.192 0.010 0.288 0.013 0.098 0.035 0.194 0.066 0.287 0.033 0.101 0.077 0.198 0.132 0.291q0.1 0.171 0.236 0.308v0q0.135 0.136 0.306 0.237l1.541 0.915-1.577 0.918c-0.121 0.070-0.228 0.153-0.322 0.249q-0.142 0.144-0.244 0.326c-0.053 0.094-0.096 0.192-0.127 0.293v0q-0.044 0.14-0.060 0.288c-0.011 0.097-0.013 0.193-0.005 0.289 0.008 0.1 0.025 0.2 0.053 0.298s0.064 0.193 0.11 0.283q0.065 0.128 0.154 0.243c0.061 0.079 0.128 0.15 0.201 0.214 0.080 0.070 0.167 0.131 0.261 0.185l2.409 1.355v5.152c0 0.192 0.024 0.378 0.072 0.557s0.12 0.352 0.217 0.518c0.096 0.166 0.21 0.315 0.342 0.445s0.281 0.244 0.448 0.339l6.267 3.58c0.164 0.094 0.335 0.164 0.512 0.211s0.36 0.070 0.55 0.070 0.373-0.023 0.55-0.070c0.177-0.047 0.348-0.117 0.512-0.211l3.408-1.947c0.454-0.259 0.607-0.819 0.347-1.273s-0.819-0.607-1.273-0.347l-2.611 1.491v-7.404l1.911 1.135c0.118 0.070 0.241 0.123 0.369 0.159s0.26 0.055 0.397 0.056c0.137 0.002 0.27-0.014 0.399-0.047s0.253-0.083 0.373-0.15l2.159-1.214v4.102c0 0.053-0.011 0.099-0.034 0.139l-0.485 0.317c-0.454 0.259-0.607 0.82-0.347 1.273s0.819 0.607 1.273 0.348l0.381-0.218c0.167-0.095 0.316-0.208 0.447-0.339s0.246-0.279 0.342-0.445c0.096-0.166 0.169-0.339 0.217-0.518s0.072-0.365 0.072-0.557v-5.152l2.409-1.355c0.094-0.053 0.181-0.115 0.261-0.185 0.073-0.064 0.141-0.136 0.201-0.214 0.060-0.077 0.111-0.158 0.154-0.243 0.046-0.090 0.082-0.184 0.11-0.283s0.045-0.198 0.053-0.298c0.007-0.095 0.005-0.192-0.005-0.288-0.011-0.099-0.031-0.195-0.060-0.288-0.032-0.101-0.074-0.199-0.127-0.293-0.068-0.122-0.15-0.231-0.244-0.326v-0q-0.142-0.144-0.322-0.249l-1.577-0.918 1.541-0.915c0.114-0.067 0.216-0.147 0.306-0.237s0.169-0.193 0.236-0.308c0.055-0.094 0.099-0.191 0.133-0.291 0.031-0.092 0.053-0.188 0.065-0.286 0.013-0.097 0.016-0.193 0.010-0.288-0.006-0.1-0.022-0.2-0.048-0.299q-0.039-0.149-0.105-0.284c-0.042-0.086-0.092-0.168-0.15-0.246-0.059-0.080-0.125-0.152-0.197-0.218zM23.413 10.712l-5.558-3.235 1.991-1.159 5.52 3.234-1.954 1.16zM16 8.558l5.576 3.245-5.576 3.31-5.576-3.31 5.576-3.245zM14.145 7.478l-5.558 3.235-1.954-1.16 5.52-3.234 1.991 1.159zM8.577 12.878l5.594 3.321-1.805 1.072-5.766-3.242 1.977-1.151zM17.828 16.199l5.594-3.321 1.977 1.151-5.766 3.242-1.805-1.072zM9.459 21.879v-4.102l2.158 1.214c0.12 0.067 0.244 0.117 0.373 0.15s0.261 0.049 0.399 0.047c0.137-0.002 0.27-0.020 0.397-0.056s0.251-0.089 0.369-0.159l1.911-1.135v7.398l-5.573-3.218q-0.034-0.059-0.034-0.139z"></path>
</svg>
