<?xml version="1.0" encoding="UTF-8"?>
<svg width="24px" height="24px" viewBox="0 0 24 24" version="1.1" xmlns="http://www.w3.org/2000/svg" xmlns:xlink="http://www.w3.org/1999/xlink">
    <title>站内消息</title>
    <g id="PC交互稿" stroke="none" stroke-width="1" fill="none" fill-rule="evenodd">
        <g id="弹窗及交互状态" transform="translate(-313.000000, -607.000000)">
            <g id="编组-42" transform="translate(297.000000, 163.000000)">
                <g id="编组-8" transform="translate(0.000000, 336.000000)">
                    <g id="编组-3" transform="translate(0.000000, 96.000000)">
                        <g id="站内消息" transform="translate(16.000000, 12.000000)">
                            <rect id="矩形-55" fill-opacity="0" fill="#C4C4C4" fill-rule="nonzero" x="0" y="0" width="24" height="24"></rect>
                            <path d="M6,7.3 L18,7.3 C18.252,7.3 18.45,7.497975 18.45,7.75 C18.45,8.002025 18.252,8.2 18,8.2 L6,8.2 C5.748,8.2 5.55,8.002025 5.55,7.75 C5.55,7.497975 5.748,7.3 6,7.3 Z M6.0047,11.299875 L18.00405,11.424925 C18.256025,11.42755 18.45195,11.627625 18.4493511,11.879575 C18.4467,12.1316 18.24665,12.327525 17.99465,12.3249 L5.995325,12.199825 C5.743325,12.1972 5.5474,11.997125 5.54999893,11.745125 C5.55265,11.493175 5.752725,11.29725 6.0047,11.299875 Z" id="合并" fill="#000000"></path>
                            <path d="M22.0075,15.705 L22.0075,13 C22.0075,12.7475 21.81,12.55 21.5575,12.55 C21.305,12.55 21.1075,12.7475 21.1075,13 L21.1075,15.705 C21.1075,15.9075 21.0575,16.06 20.955,16.16 C20.855,16.2625 20.7025,16.3125 20.5,16.3125 L11.4075,16.3125 C11.2,16.3125 11.0075,16.35 10.8275,16.425 C10.65,16.4975 10.4875,16.6075 10.34,16.755 L7.185,19.9125 L7.185,17.2925 C7.185,17.1575 7.16,17.0325 7.1125,16.9175 C7.065,16.8025 6.9925,16.695 6.8975,16.6 C6.8025,16.505 6.695,16.4325 6.58,16.385 C6.465,16.3375 6.34,16.3125 6.205,16.3125 L3.5575,16.3125 C3.355,16.3125 3.2025,16.2625 3.1,16.16 C3,16.06 2.95,15.9075 2.95,15.705 L2.95,4.0575 C2.95,3.855 3,3.7025 3.1,3.6 C3.2025,3.5 3.355,3.45 3.5575,3.45 L20.5,3.45 C20.7025,3.45 20.855,3.5 20.955,3.6 C21.0575,3.7025 21.1075,3.855 21.1075,4.0575 L21.1075,11 C21.1075,11.25 21.305,11.45 21.5575,11.45 C21.81,11.45 22.0075,11.25 22.0075,11 L22.0075,4.0575 C22.0075,3.85 21.97,3.655 21.8975,3.4775 C21.8225,3.3 21.7125,3.1375 21.565,2.99 C21.4175,2.8425 21.255,2.7325 21.0775,2.66 C20.9,2.585 20.7075,2.55 20.5,2.55 L3.5575,2.55 C3.35,2.55 3.155,2.585 2.9775,2.66 C2.8,2.7325 2.6375,2.8425 2.49,2.99 C2.3425,3.1375 2.2325,3.3 2.16,3.4775 C2.085,3.655 2.05,3.85 2.05,4.0575 L2.05,15.705 C2.05,15.9125 2.085,16.105 2.16,16.285 C2.2325,16.4625 2.3425,16.625 2.49,16.7725 C2.6375,16.92 2.8,17.03 2.9775,17.1025 C3.155,17.1775 3.35,17.2125 3.5575,17.2125 L6.205,17.2125 C6.23,17.2125 6.25,17.22 6.265,17.2325 C6.2775,17.2475 6.285,17.2675 6.285,17.2925 L6.285,20.36 C6.285,20.52 6.32,20.6525 6.395,20.7625 C6.4675,20.8725 6.5775,20.96 6.725,21.02 C6.8725,21.08 7.01,21.0975 7.14,21.0725 C7.27,21.0475 7.3925,20.9775 7.505,20.865 L10.9775,17.3925 C11.0375,17.3325 11.1025,17.2875 11.175,17.2575 C11.245,17.2275 11.325,17.2125 11.4075,17.2125 L20.5,17.2125 C20.7075,17.2125 20.9,17.1775 21.0775,17.1025 C21.255,17.03 21.4175,16.92 21.565,16.7725 C21.7125,16.625 21.8225,16.4625 21.8975,16.285 C21.97,16.105 22.0075,15.9125 22.0075,15.705 Z" id="矩形-51-(边框)" fill="#161616"></path>
                        </g>
                    </g>
                </g>
            </g>
        </g>
    </g>
</svg>