<svg version="1.1" xmlns="http://www.w3.org/2000/svg" width="1em" height="1em" viewBox="0 0 32 32">
    <path fill="currentColor"
        d="M20.095 3.435c0.297 0 0.585 0.103 0.815 0.287l0.131 0.12 5.284 5.589c0.191 0.201 0.311 0.457 0.345 0.728l0.011 0.165v9.048c0 0.516-0.417 0.933-0.933 0.933-0.472 0-0.863-0.351-0.925-0.807l-0.008-0.127-0.001-8.403-2.849 0.001c-1.332 0-2.425-1.029-2.525-2.336l-0.008-0.197-0.001-3.137-11.708 0.017c-0.259 0-0.473 0.184-0.523 0.427l-0.011 0.108v20.311c0 0.259 0.184 0.473 0.428 0.523l0.108 0.011 16.559-0.024c0.259 0 0.473-0.184 0.523-0.427l0.011-0.108v-3.261c0-0.516 0.417-0.933 0.933-0.933 0.472 0 0.863 0.351 0.925 0.807l0.008 0.127v3.261c0 1.259-0.968 2.291-2.201 2.393l-0.197 0.008-16.559 0.024c-1.26 0.001-2.295-0.967-2.396-2.203l-0.008-0.197v-20.312c0-1.259 0.968-2.291 2.201-2.393l0.197-0.008 12.377-0.017zM20.581 20.447c0.516 0 0.933 0.417 0.933 0.933 0 0.472-0.351 0.863-0.807 0.925l-0.127 0.008h-9.164c-0.516 0-0.933-0.417-0.933-0.933 0-0.472 0.351-0.863 0.807-0.925l0.127-0.008h9.164zM20.581 15.067c0.516 0 0.933 0.417 0.933 0.933 0 0.472-0.351 0.863-0.807 0.925l-0.127 0.008h-9.164c-0.516 0-0.933-0.417-0.933-0.933 0-0.472 0.351-0.863 0.807-0.925l0.127-0.008h9.164zM16.005 9.687c0.516 0 0.933 0.417 0.933 0.933 0 0.472-0.351 0.863-0.807 0.925l-0.127 0.008h-4.588c-0.516 0-0.933-0.417-0.933-0.933 0-0.472 0.351-0.863 0.807-0.925l0.127-0.008h4.588zM23.445 9.104l-2.151-2.275 0.001 1.609c0 0.327 0.236 0.6 0.547 0.656l0.12 0.011 1.483-0.001z">
    </path>
</svg>