<svg version="1.1" xmlns="http://www.w3.org/2000/svg" width="32" height="32" viewBox="0 0 32 32">
<path fill="currentColor" d="M23.147 16.64v10.027c0 0.52 0.413 0.933 0.933 0.933s0.933-0.413 0.933-0.933v-9.76h2.267c0.2 0 0.387-0.027 0.56-0.093 0.147-0.053 0.28-0.12 0.4-0.213s0.227-0.2 0.307-0.307c0.107-0.133 0.187-0.28 0.24-0.453 0.067-0.16 0.093-0.32 0.093-0.493 0.013-0.147-0.013-0.28-0.040-0.427-0.040-0.16-0.107-0.293-0.187-0.427-0.093-0.16-0.213-0.307-0.36-0.427l-10.893-8.787c-0.12-0.093-0.227-0.16-0.347-0.227-0.107-0.067-0.227-0.107-0.333-0.147-0.12-0.053-0.24-0.080-0.36-0.093-0.133-0.027-0.267-0.040-0.387-0.040-0.133 0-0.267 0.013-0.4 0.040-0.12 0.013-0.24 0.053-0.347 0.093-0.12 0.040-0.24 0.093-0.347 0.147-0.12 0.067-0.227 0.147-0.333 0.227l-10.853 8.813c-0.147 0.12-0.267 0.267-0.373 0.427-0.067 0.12-0.133 0.267-0.16 0.427-0.040 0.133-0.053 0.28-0.053 0.427 0 0.173 0.040 0.333 0.093 0.493 0.067 0.16 0.147 0.307 0.24 0.44 0.093 0.12 0.2 0.227 0.32 0.307 0.12 0.093 0.253 0.173 0.4 0.227 0.173 0.053 0.36 0.093 0.547 0.093l2.213-0.013v8.413c0 0.16 0.027 0.32 0.053 0.467s0.080 0.28 0.133 0.413c0.053 0.133 0.12 0.253 0.2 0.36 0.080 0.133 0.173 0.253 0.28 0.36s0.227 0.2 0.347 0.28c0.12 0.080 0.24 0.147 0.373 0.2s0.267 0.107 0.4 0.133c0.16 0.027 0.32 0.053 0.48 0.053h9.333c0.173 0 0.333-0.027 0.48-0.053s0.28-0.080 0.413-0.133c0.12-0.053 0.253-0.12 0.36-0.2 0.133-0.080 0.253-0.173 0.36-0.28s0.2-0.227 0.28-0.36c0.080-0.107 0.147-0.24 0.2-0.36 0.053-0.133 0.093-0.267 0.133-0.413 0.027-0.147 0.040-0.307 0.040-0.467v-6.96c0-0.16-0.013-0.32-0.040-0.48-0.040-0.133-0.080-0.28-0.133-0.4-0.053-0.133-0.12-0.267-0.2-0.373-0.080-0.133-0.173-0.24-0.28-0.347-0.107-0.12-0.227-0.213-0.36-0.293-0.107-0.080-0.24-0.147-0.36-0.2-0.133-0.053-0.267-0.093-0.413-0.12-0.147-0.040-0.307-0.053-0.48-0.053h-5.133c-0.16 0-0.32 0.013-0.48 0.053-0.133 0.027-0.267 0.067-0.4 0.12s-0.253 0.12-0.373 0.2c-0.12 0.080-0.24 0.173-0.347 0.293-0.107 0.107-0.2 0.213-0.28 0.347-0.080 0.107-0.147 0.24-0.2 0.373-0.067 0.12-0.107 0.267-0.133 0.4-0.040 0.16-0.053 0.32-0.053 0.48v4.733c0 0.533 0.413 0.933 0.933 0.933s0.933-0.4 0.933-0.933v-4.733c0-0.053 0.013-0.107 0.027-0.16 0.040-0.040 0.173-0.2 0.227-0.213 0.040-0.027 0.093-0.027 0.147-0.027h5.133c0.067 0 0.107 0 0.16 0.027 0.040 0.040 0.2 0.173 0.213 0.213 0.027 0.053 0.027 0.107 0.027 0.16v6.96c0 0.053 0 0.093-0.027 0.147-0.040 0.040-0.173 0.2-0.213 0.213-0.053 0.027-0.093 0.027-0.16 0.027h-9.333c-0.053 0-0.107 0-0.147-0.027-0.040-0.040-0.2-0.16-0.213-0.213-0.027-0.053-0.040-0.093-0.040-0.147v-8.68c0-0.12-0.013-0.227-0.027-0.333-0.027-0.107-0.053-0.2-0.093-0.293s-0.093-0.187-0.147-0.267c-0.053-0.080-0.12-0.173-0.2-0.24-0.080-0.080-0.16-0.147-0.24-0.2-0.093-0.053-0.173-0.107-0.267-0.147-0.080-0.027-0.147-0.053-0.227-0.080-0.133-0.027-0.267-0.040-0.4-0.040h-1.72l10.253-8.32c0.040-0.013 0.2-0.093 0.253-0.093 0.040 0 0.093 0.013 0.133 0.027l10.427 8.373h-1.787c-0.12 0-0.227 0.013-0.333 0.040s-0.2 0.053-0.293 0.093c-0.093 0.040-0.187 0.080-0.267 0.147-0.080 0.053-0.16 0.12-0.24 0.2-0.080 0.067-0.147 0.147-0.2 0.24-0.053 0.080-0.107 0.173-0.147 0.267s-0.067 0.187-0.093 0.293c-0.013 0.107-0.027 0.213-0.027 0.32z"></path>
</svg>
