<svg version="1.1" xmlns="http://www.w3.org/2000/svg" width="32" height="32" viewBox="0 0 32 32">
<path fill="currentColor" d="M22.667 3.867c0.441 0.001 0.799 0.358 0.799 0.8 0 0.396-0.288 0.725-0.665 0.789l-0.005 0.001-0.129 0.011h-13.333c-0.441-0-0.799-0.358-0.799-0.8 0-0.396 0.287-0.725 0.665-0.789l0.005-0.001 0.129-0.011h13.333zM15.44 8.101c0.145-0.145 0.345-0.235 0.567-0.235 0.17 0 0.328 0.053 0.457 0.144l-0.003-0.002 0.111 0.093 6.667 6.667c0.146 0.145 0.237 0.346 0.237 0.568 0 0.442-0.358 0.8-0.8 0.8-0.172 0-0.33-0.054-0.461-0.146l0.003 0.002-0.111-0.093-6.101-6.101-6.1 6.101c-0.145 0.145-0.345 0.235-0.567 0.235-0.17 0-0.328-0.053-0.457-0.144l0.003 0.002-0.111-0.093c-0.145-0.145-0.235-0.345-0.235-0.566 0-0.17 0.053-0.327 0.143-0.457l-0.002 0.003 0.093-0.111 6.667-6.667z"></path>
<path fill="currentColor" d="M16 28.133c0.396-0 0.725-0.288 0.789-0.666l0.001-0.005 0.011-0.129v-18.667c-0-0.441-0.358-0.799-0.8-0.799-0.396 0-0.725 0.287-0.789 0.665l-0.001 0.005-0.011 0.129v18.667c0 0.442 0.358 0.8 0.8 0.8v0z"></path>
</svg>
