<svg version="1.1" xmlns="http://www.w3.org/2000/svg" width="24" height="24" viewBox="0 0 24 24">
<path fill="currentColor" d="M3.608 11.302l0.114-0.009 7.583-0.011 0.012-7.58c0.001-0.387 0.314-0.7 0.701-0.699 0.348 0 0.636 0.255 0.69 0.587l0.009 0.114-0.024 16.555c-0.001 0.387-0.314 0.7-0.701 0.699-0.348-0-0.636-0.255-0.69-0.587l-0.009-0.114 0.010-7.574-7.579 0.010-0.114-0.009c-0.333-0.054-0.587-0.342-0.587-0.69s0.253-0.637 0.585-0.692zM14.902 11.276l5.374-0.007 0.114 0.009c0.333 0.054 0.587 0.342 0.587 0.69s-0.253 0.637-0.585 0.692l-0.114 0.009-5.378 0.007c-0.347 0-0.635-0.252-0.69-0.584l-0.009-0.115c0-0.387 0.314-0.7 0.701-0.701z"></path>
</svg>
