<svg version="1.1" xmlns="http://www.w3.org/2000/svg" width="24" height="24" viewBox="0 0 24 24">
<path fill="currentColor" d="M19.154 5.295c0.387 0 0.7 0.313 0.7 0.7 0 0.354-0.263 0.647-0.605 0.694l-0.095 0.006-12.201-0.001 0.001 12.413c0 0.17 0.12 0.311 0.28 0.344l0.071 0.007h9.39c0.17 0 0.311-0.12 0.344-0.28l0.007-0.071v-10.47c0-0.387 0.313-0.7 0.7-0.7 0.354 0 0.647 0.263 0.694 0.605l0.006 0.095v10.47c0 0.919-0.708 1.672-1.608 1.745l-0.144 0.006h-9.39c-0.919 0-1.672-0.708-1.745-1.608l-0.006-0.144-0.001-12.413-0.707 0.001c-0.387 0-0.7-0.313-0.7-0.7 0-0.354 0.263-0.647 0.605-0.694l0.095-0.006h14.308zM10.011 9.744c0.354 0 0.647 0.263 0.694 0.605l0.006 0.095v5.68c0 0.387-0.313 0.7-0.7 0.7-0.354 0-0.647-0.263-0.694-0.605l-0.006-0.095v-5.68c0-0.387 0.313-0.7 0.7-0.7zM13.953 9.744c0.354 0 0.647 0.263 0.694 0.605l0.006 0.095v5.68c0 0.387-0.313 0.7-0.7 0.7-0.354 0-0.647-0.263-0.694-0.605l-0.006-0.095v-5.68c0-0.387 0.313-0.7 0.7-0.7zM13.652 3.189c0.387 0 0.7 0.313 0.7 0.7 0 0.354-0.263 0.647-0.605 0.694l-0.095 0.006h-3.972c-0.387 0-0.7-0.313-0.7-0.7 0-0.354 0.263-0.647 0.605-0.694l0.095-0.006h3.972z"></path>
</svg>
