<svg width="24" height="24" viewBox="0 0 24 24" xmlns="http://www.w3.org/2000/svg"><g fill="none" fill-rule="evenodd"><path fill="none" d="M0 0h24v24H0z"/><path d="M19 5.3H3c-.392 0-.7.308-.7.7 0 .392.308.7.7.7h16c.392 0 .7-.308.7-.7 0-.392-.308-.7-.7-.7zm-16 6h12c.392 0 .7.308.7.7 0 .392-.308.7-.7.7H3a.693.693 0 0 1-.7-.7c0-.392.308-.7.7-.7zm18.075 2.1l-5 7.209c-.019.02-.091.108-.113.127a.674.674 0 0 1-.507.172.675.675 0 0 1-.48-.236l-2.5-2.843a.693.693 0 0 1 .063-.988.693.693 0 0 1 .988.063l1.909 2.172 4.49-6.475a.693.693 0 0 1 .974-.176c.322.223.4.652.176.974zM11 17.3H3c-.392 0-.7.308-.7.7 0 .392.308.7.7.7h8c.392 0 .7-.308.7-.7 0-.392-.308-.7-.7-.7z" fill="currentColor"/></g></svg>