<svg version="1.1" xmlns="http://www.w3.org/2000/svg" width="24" height="24" viewBox="0 0 24 24">
<path fill="currentColor" d="M6.463 4.976c0.387 0 0.7 0.313 0.7 0.7 0 0.354-0.263 0.647-0.605 0.694l-0.095 0.006h-1.992c-0.060 0-0.111 0.039-0.13 0.093l-0.007 0.043v1.856h15.329l0.001-1.856c0-0.060-0.039-0.111-0.093-0.13l-0.043-0.007h-2.055c-0.387 0-0.7-0.313-0.7-0.7 0-0.354 0.263-0.647 0.605-0.694l0.095-0.006h2.055c0.801 0 1.46 0.614 1.53 1.397l0.006 0.14v12.359c0 0.801-0.614 1.46-1.397 1.53l-0.14 0.006h-15.057c-0.801 0-1.46-0.614-1.53-1.397l-0.006-0.14v-12.359c0-0.801 0.614-1.46 1.397-1.53l0.14-0.006h1.992zM19.664 9.768h-15.329v9.103c0 0.060 0.039 0.111 0.093 0.13l0.043 0.007h15.057c0.060 0 0.111-0.039 0.13-0.093l0.007-0.043-0.001-9.103zM16.182 15.431c0.387 0 0.7 0.313 0.7 0.7 0 0.354-0.263 0.647-0.605 0.694l-0.095 0.006h-8.365c-0.387 0-0.7-0.313-0.7-0.7 0-0.354 0.263-0.647 0.605-0.694l0.095-0.006h8.365zM16.182 12.085c0.387 0 0.7 0.313 0.7 0.7 0 0.354-0.263 0.647-0.605 0.694l-0.095 0.006h-8.365c-0.387 0-0.7-0.313-0.7-0.7 0-0.354 0.263-0.647 0.605-0.694l0.095-0.006h8.365zM15.486 3.618c0.354 0 0.647 0.263 0.694 0.605l0.006 0.095v2.804c0 0.387-0.313 0.7-0.7 0.7-0.354 0-0.647-0.263-0.694-0.605l-0.006-0.095v-2.804c0-0.387 0.313-0.7 0.7-0.7zM8.549 3.592c0.354 0 0.647 0.263 0.694 0.605l0.006 0.095v2.804c0 0.387-0.313 0.7-0.7 0.7-0.354 0-0.647-0.263-0.694-0.605l-0.006-0.095v-2.804c0-0.387 0.313-0.7 0.7-0.7zM13.495 4.976c0.387 0 0.7 0.313 0.7 0.7 0 0.354-0.263 0.647-0.605 0.694l-0.095 0.006h-2.965c-0.387 0-0.7-0.313-0.7-0.7 0-0.354 0.263-0.647 0.605-0.694l0.095-0.006h2.965z"></path>
</svg>
