<svg id="icon-icon-palying" viewBox="0 0 32 32">
    <path fill="currentColor"
        d="M4.942 7.769c0.52 0 0.942 0.422 0.942 0.942v18.846c0 0.52-0.422 0.942-0.942 0.942s-0.942-0.422-0.942-0.942v-18.846c0-0.52 0.422-0.942 0.942-0.942zM11.862 15.308c0.52 0 0.942 0.422 0.942 0.942v11.308c0 0.52-0.422 0.942-0.942 0.942s-0.942-0.422-0.942-0.942v-11.308c0-0.52 0.422-0.942 0.942-0.942zM18.753 4c0.52 0 0.942 0.422 0.942 0.942v22.615c0 0.52-0.422 0.942-0.942 0.942s-0.942-0.422-0.942-0.942v-22.615c0-0.52 0.422-0.942 0.942-0.942zM25.673 11.538c0.52 0 0.942 0.422 0.942 0.942v15.077c0 0.52-0.422 0.942-0.942 0.942s-0.942-0.422-0.942-0.942v-15.077c0-0.52 0.422-0.942 0.942-0.942z">
    </path>
</svg>