<svg version="1.1" xmlns="http://www.w3.org/2000/svg" width="24" height="24" viewBox="0 0 24 24">
<path fill="currentColor" d="M12 2.293c1.632 0 3.208 0.404 4.613 1.164 0.34 0.184 0.466 0.609 0.282 0.949s-0.609 0.466-0.949 0.282c-1.202-0.65-2.549-0.996-3.947-0.996-4.588 0-8.307 3.719-8.307 8.307s3.719 8.307 8.307 8.307c4.588 0 8.307-3.719 8.307-8.307 0-2.064-0.755-4.009-2.099-5.52-0.257-0.289-0.231-0.731 0.058-0.988s0.731-0.231 0.988 0.058c1.57 1.764 2.453 4.040 2.453 6.45 0 5.361-4.346 9.707-9.707 9.707s-9.707-4.346-9.707-9.707c0-5.361 4.346-9.707 9.707-9.707zM12 5.668c0.354 0 0.647 0.263 0.694 0.605l0.006 0.095v5.976l-3.246 3.047c-0.282 0.265-0.725 0.251-0.989-0.031-0.238-0.254-0.251-0.638-0.045-0.905l0.077-0.084 2.804-2.633 0-5.369c0-0.354 0.263-0.647 0.605-0.694l0.095-0.006z"></path>
</svg>
