<svg viewBox="0 0 24 24" ><path fill="currentColor" d="m4.804 5.34.097.008a.6.6 0 0 1-.097 1.192h-.9l-.07.008a.305.305 0 0 0-.234.297v9.045l.008.07a.305.305 0 0 0 .297.235h1.362l.097.007a.6.6 0 0 1 .503.593v2.203l2.728-2.635.071-.059a.6.6 0 0 1 .346-.11h6.196l.097.008a.6.6 0 0 1 .503.593l-.008.097a.6.6 0 0 1-.592.503l-5.953-.001-3.188 3.08-.098.082a.826.826 0 0 1-.476.15l-.104-.006a.826.826 0 0 1-.722-.82v-2.486h-.762l-.137-.006A1.505 1.505 0 0 1 2.4 15.89V6.845l.006-.137A1.505 1.505 0 0 1 3.905 5.34h.899ZM19.283 2.4c.83 0 1.505.674 1.505 1.505v9.045c0 .831-.674 1.505-1.505 1.505l-.763-.001v2.487a.826.826 0 0 1-.722.82l-.103.006a.826.826 0 0 1-.574-.232l-3.189-3.081H7.523c-.785 0-1.43-.6-1.498-1.367l-.007-.137V3.905c0-.831.674-1.505 1.505-1.505Zm0 1.2H7.523a.305.305 0 0 0-.305.305v9.045c0 .168.137.305.305.305h6.653a.6.6 0 0 1 .417.168l2.727 2.635v-2.203a.6.6 0 0 1 .504-.593l.097-.007h1.362a.305.305 0 0 0 .304-.305V3.905a.305.305 0 0 0-.304-.305Zm-5.754 7.74a.71.71 0 1 1 0 1.422.71.71 0 0 1 0-1.421Zm-.021-7.212c1.633 0 2.968 1.269 2.968 2.849 0 .904-.52 1.727-1.332 2.273l-.167.106c-.618.369-.844.62-.872.962l-.003.088a.6.6 0 0 1-1.2.013c-.01-.911.462-1.497 1.46-2.094.571-.34.914-.847.914-1.348 0-.903-.785-1.649-1.768-1.649-.984 0-1.769.746-1.769 1.649a.6.6 0 0 1-1.2 0c0-1.58 1.336-2.849 2.969-2.849Z" ></path></svg>