<svg version="1.1" xmlns="http://www.w3.org/2000/svg" width="24" height="24" viewBox="0 0 24 24">
<path fill="currentColor" d="M9.075 4c0.387 0 0.7 0.313 0.7 0.7 0 0.354-0.263 0.647-0.605 0.694l-0.095 0.006h-5.175c-0.245 0-0.45 0.177-0.492 0.41l-0.008 0.090v11.769c0 0.077 0.017 0.149 0.048 0.214l3.273-3.241c0.64-0.633 1.486-1.010 2.38-1.064l0.224-0.007h0.487c0.387 0 0.7 0.313 0.7 0.7 0 0.354-0.263 0.647-0.605 0.694l-0.095 0.006h-0.487c-0.539 0-1.058 0.189-1.47 0.531l-0.149 0.135-2.557 2.532 7.032 0c0.91-1.279 1.357-2.21 1.357-2.712 0-0.192-0.071-0.453-0.223-0.822l-0.151-0.343-0.418-0.866-0.163-0.346-0.128-0.291c-0.168-0.401-0.23-0.656-0.241-0.95l-0.002-0.1c0-0.29 0.030-0.497 0.153-0.808l0.096-0.225 0.204-0.423 0.445-0.872 0.124-0.259 0.098-0.228c0.015-0.037 0.029-0.073 0.042-0.109 0.108-0.289 0.162-0.53 0.162-0.733 0-0.664-0.366-1.626-1.119-2.853-0.152-0.128-0.247-0.319-0.247-0.531 0-0.354 0.263-0.647 0.605-0.694l0.095-0.006h6.8c0.999 0 1.819 0.772 1.894 1.752l0.006 0.148v11.769c0 0.999-0.772 1.819-1.752 1.894l-0.148 0.006h-15.774c-0.209 0-0.41-0.034-0.598-0.096-0.005-0.001-0.011-0.003-0.016-0.005-0.703-0.24-1.221-0.881-1.28-1.65l-0.006-0.148v-11.769c0-0.999 0.772-1.819 1.752-1.894l0.148-0.006h5.175zM14.938 8.084c0 0.392-0.088 0.791-0.251 1.225-0.079 0.211-0.168 0.414-0.287 0.656l-0.511 1.006-0.104 0.217-0.076 0.172c-0.010 0.025-0.020 0.049-0.028 0.072l-0.040 0.122c-0.005 0.018-0.009 0.035-0.013 0.052l-0.013 0.092-0.001 0.042c0 0.044 0.005 0.093 0.018 0.15l0.034 0.126c0.007 0.023 0.016 0.048 0.025 0.074l0.067 0.173c0.013 0.032 0.027 0.065 0.043 0.101l0.168 0.37 0.368 0.761c0.41 0.855 0.603 1.407 0.603 1.963 0 0.708-0.359 1.597-1.067 2.711l5.802 0.001c0.245 0 0.45-0.177 0.492-0.41l0.008-0.090v-11.769c0-0.245-0.177-0.45-0.41-0.492l-0.090-0.008-5.548-0c0.539 1.035 0.813 1.924 0.813 2.684zM6.194 7.405c0.715 0 1.294 0.564 1.294 1.259s-0.579 1.259-1.294 1.259c-0.715 0-1.294-0.564-1.294-1.259s0.579-1.259 1.294-1.259z"></path>
</svg>
