<svg version="1.1" xmlns="http://www.w3.org/2000/svg" width="24" height="24" viewBox="0 0 24 24">
<path fill="currentColor" d="M11.978 20.901l-0.005-0.002-0.084-0.006c-0.306-0.046-0.548-0.29-0.589-0.597l-0.006-0.095v-16.402c0-0.387 0.313-0.7 0.7-0.7 0.354 0 0.647 0.263 0.694 0.605l0.006 0.095-0.001 14.919 5.699-5.698c0.273-0.273 0.717-0.273 0.99 0 0.246 0.246 0.271 0.63 0.074 0.903l-0.074 0.087-6.539 6.539c-0.225 0.225-0.517 0.342-0.812 0.351-0.012 0-0.024 0.001-0.037 0.001l-0.015-0zM4.619 13.033c0.246-0.246 0.63-0.27 0.903-0.073l0.087 0.074 4.571 4.574c0.273 0.273 0.273 0.717-0 0.99s-0.717 0.273-0.99-0l-4.571-4.574c-0.273-0.273-0.273-0.717 0-0.99z"></path>
</svg>
