<svg version="1.1" xmlns="http://www.w3.org/2000/svg" width="32" height="32" viewBox="0 0 32 32" fill="currentColor">
<path d="M23 2.667c2.946 0 5.333 2.388 5.333 5.333v16c0 2.946-2.388 5.333-5.333 5.333h-13.667c-2.946 0-5.333-2.388-5.333-5.333v-16c0-2.946 2.388-5.333 5.333-5.333h13.667zM9.333 4.667c-1.841 0-3.333 1.492-3.333 3.333v16c0 1.841 1.492 3.333 3.333 3.333h13.667c1.841 0 3.333-1.492 3.333-3.333v-16c0-1.841-1.492-3.333-3.333-3.333h-13.667z"></path>
<path d="M10.11 11.595c-0.632 0-1.145-0.512-1.145-1.145s0.512-1.145 1.145-1.145c0.632 0 1.145 0.512 1.145 1.145s-0.512 1.145-1.145 1.145z"></path>
<path d="M10.11 16.956c-0.632 0-1.145-0.512-1.145-1.145s0.512-1.145 1.145-1.145c0.632 0 1.145 0.512 1.145 1.145s-0.512 1.145-1.145 1.145z"></path>
<path d="M10.11 22.94c-0.632 0-1.145-0.512-1.145-1.145s0.512-1.145 1.145-1.145c0.632 0 1.145 0.512 1.145 1.145s-0.512 1.145-1.145 1.145z"></path>
<path d="M13.762 9.306h8.094c0.552 0 1 0.448 1 1s-0.448 1-1 1h-8.094c-0.552 0-1-0.448-1-1s0.448-1 1-1z"></path>
<path d="M13.762 14.667h8.094c0.552 0 1 0.448 1 1s-0.448 1-1 1h-8.094c-0.552 0-1-0.448-1-1s0.448-1 1-1z"></path>
<path d="M13.762 20.651h8.094c0.552 0 1 0.448 1 1s-0.448 1-1 1h-8.094c-0.552 0-1-0.448-1-1s0.448-1 1-1z"></path>
</svg>
