<svg xmlns="http://www.w3.org/2000/svg" viewBox="0 0 512 512"><!--!Font Awesome Free 6.6.0 by @fontawesome - https://fontawesome.com License - https://fontawesome.com/license/free Copyright 2024 Fonticons, Inc.--><path fill="currentColor" d="M458.6 255.9l46-45c13.7-13 7.3-36-10.7-40.3l-62.7-16 17.7-62c5-17.8-11.8-34.7-29.7-29.7l-62 17.7-16-62.7C337.1 .2 313.8-6.3 301 7.2L256 53.6 211 7.2c-12.6-13.4-36-7.2-40.3 10.7l-16 62.7-62-17.7C74.9 57.9 58.1 74.7 63 92.6l17.7 62-62.7 16C.1 174.9-6.3 197.9 7.4 210.9l46 45-46 45c-13.7 13-7.3 36 10.7 40.3l62.7 16-17.7 62c-5 17.8 11.8 34.7 29.7 29.7l62-17.7 16 62.7c4.4 18.6 27.7 24 40.3 10.7L256 458.6l45 46c12.5 13.5 36 7.5 40.3-10.7l16-62.7 62 17.7c17.8 5 34.7-11.8 29.7-29.7l-17.7-62 62.7-16c18-4.3 24.4-27.4 10.7-40.3l-46-45z"/></svg>