<svg width="139" height="32" viewBox="0 0 139 32" xmlns="http://www.w3.org/2000/svg" xmlns:xlink="http://www.w3.org/1999/xlink"><defs><path id="a" d="M0 0h29.5v32H0z"/></defs><g fill="none" fill-rule="evenodd"><path d="M58.6 20.167c-1.81 0-3.278-1.402-3.278-3.132 0-1.73 1.468-3.133 3.278-3.133s3.278 1.403 3.278 3.133-1.468 3.132-3.278 3.132m0-8.944c-1.36 0-2.612.432-3.624 1.153v-.972c0-.1-.086-.181-.19-.181h-2.348a.186.186 0 0 0-.19.181v14.977c0 .1.085.182.19.182h2.347c.105 0 .19-.082.19-.182v-4.687a6.232 6.232 0 0 0 3.625 1.153c3.359 0 6.081-2.602 6.081-5.812 0-3.21-2.722-5.812-6.081-5.812M70.01 14.878c.61-.572 1.374-.858 2.29-.858.939 0 1.709.282 2.312.848.214.201.367.39.502.637.016.028.053.092.063.122.027.086-.04.086-.04.086h-5.652s-.082 0-.043-.078c.04-.077.083-.152.13-.225.12-.19.265-.37.439-.532m4.648 4.347c-.02.022-.04.046-.063.067-.614.575-1.382.863-2.306.863-.924 0-1.688-.284-2.29-.853a2.704 2.704 0 0 1-.617-.866 2.92 2.92 0 0 1-.159-.446c-.008-.03-.004-.052.006-.067.01-.017.032-.037.059-.038h8.872c.004 0 .172.003.19-.138 0 0 .04-.332.04-.67 0-.81-.218-1.56-.218-1.56a5.655 5.655 0 0 0-.593-1.345c-.54-.897-1.292-1.607-2.255-2.13a6.38 6.38 0 0 0-3.088-.785c-1.515 0-2.855.503-4.021 1.508-1.33 1.155-1.995 2.6-1.995 4.333 0 1.617.588 2.991 1.765 4.123 1.177 1.13 2.597 1.697 4.261 1.697 1.13 0 2.166-.257 3.104-.77a5.745 5.745 0 0 0 1.98-1.78.045.045 0 0 0-.022-.068c-.272-.125-.551-.237-.827-.356l-1.334-.572-.331-.14c-.047-.021-.107-.064-.158-.007M85.19 11.264c-2.8 0-5.07 2.17-5.07 4.847v6.556a.2.2 0 0 0 .204.196h2.522a.2.2 0 0 0 .205-.196V16.11c0-1.13.958-2.046 2.14-2.046 1.182 0 2.14.916 2.14 2.046v6.556a.2.2 0 0 0 .205.196h2.521a.2.2 0 0 0 .205-.196V16.11c0-2.677-2.27-4.847-5.071-4.847M101.756 10.623a.2.2 0 0 0 .205-.196V8.014a.2.2 0 0 0-.205-.196H92.11a.2.2 0 0 0-.205.196v14.669a.2.2 0 0 0 .205.196h9.646a.2.2 0 0 0 .205-.196V20.27a.2.2 0 0 0-.205-.196h-6.768v-3.945h6.421a.2.2 0 0 0 .205-.196V13.52a.2.2 0 0 0-.205-.196h-6.421v-2.701h6.768zM108.14 22.833c-2.8 0-5.071-2.17-5.071-4.846V11.43a.2.2 0 0 1 .205-.196h2.521a.2.2 0 0 1 .205.196v6.557c0 1.13.959 2.045 2.14 2.045 1.182 0 2.14-.916 2.14-2.045V11.43a.2.2 0 0 1 .206-.196h2.521a.2.2 0 0 1 .205.196v6.557c0 2.676-2.27 4.846-5.072 4.846M117.611 22.812h-2.776a.073.073 0 0 1-.074-.07V7.888c0-.04.033-.071.074-.071h2.776c.041 0 .074.032.074.07v14.853c0 .04-.033.071-.074.071M138.18 11.723a4.86 4.86 0 0 0-2.389 1.175v-1.472a.2.2 0 0 0-.205-.196h-2.354a.2.2 0 0 0-.205.196V22.69a.2.2 0 0 0 .205.196h2.354a.2.2 0 0 0 .205-.196v-5.86c.053-.58.226-.992.639-1.411.587-.674 1.404-1.08 2.397-1.27.044-.008.089-.012.089-.012.045-.004.083-.03.083-.082a206.302 206.302 0 0 1 0-1.998c.002-.07 0-.312 0-.37 0-.034-.007-.053-.063-.05 0 0-.392.017-.755.086M123.014 14.825c.61-.572 1.373-.858 2.29-.858.938 0 1.708.283 2.31.848.216.202.368.391.503.637.016.029.053.093.063.123.027.085-.04.085-.04.085h-5.652s-.082 0-.043-.077a2.79 2.79 0 0 1 .569-.758m4.648 4.347c-.02.023-.04.046-.063.068-.614.575-1.382.862-2.306.862-.924 0-1.688-.283-2.29-.852a2.704 2.704 0 0 1-.617-.867 2.916 2.916 0 0 1-.159-.446c-.008-.03-.004-.051.006-.067.01-.017.032-.037.059-.037h8.872c.004 0 .172.003.19-.138 0 0 .04-.333.04-.67 0-.81-.218-1.561-.218-1.561a5.661 5.661 0 0 0-.593-1.344c-.54-.897-1.292-1.607-2.255-2.131a6.379 6.379 0 0 0-3.088-.785c-1.515 0-2.855.503-4.021 1.509-1.33 1.155-1.995 2.6-1.995 4.332 0 1.617.588 2.992 1.765 4.123 1.177 1.131 2.597 1.697 4.261 1.697 1.13 0 2.166-.256 3.104-.77a5.746 5.746 0 0 0 1.98-1.78.045.045 0 0 0-.022-.067c-.273-.125-.551-.238-.827-.356-.444-.192-.889-.382-1.334-.572l-.331-.141c-.047-.02-.107-.063-.158-.007M47.19 17.016c0 .187-.105.36-.275.454l-3.087 1.704a.57.57 0 0 1-.549 0l-3.087-1.704a.52.52 0 0 1-.274-.454v-3.407a.52.52 0 0 1 .274-.455l3.087-1.703a.572.572 0 0 1 .55 0l3.086 1.703c.17.094.275.268.275.455v3.407zm2.678-5.906l-5.663-3.125a1.355 1.355 0 0 0-1.303 0L37.24 11.11a1.236 1.236 0 0 0-.651 1.078v6.249c0 .445.248.856.651 1.078l5.663 3.125c.403.222.9.222 1.303 0l5.663-3.125c.403-.222.652-.633.652-1.078v-6.25c0-.444-.249-.855-.652-1.077z" fill="#FFF"/><g><mask id="b" fill="#fff"><use xlink:href="#a"/></mask><path d="M26.462 12.477c-.65.788-2.322 1.108-3.65.702-1.268-.388-1.676-1.276-.99-1.976.662-.675 2.142-.966 3.375-.661 1.289.318 1.889 1.178 1.265 1.935m-5.86-1.61c-.694.678-2.183.97-3.258.641-.598-.183-.928-.563-.946-.881-.013-.245-.4-.47-.824-.591-.428-.123-.923-.111-1.419-.054-.126.015-.391.07-.561.124-.456.146-.851.31-1.18.571-.41.326-.545.904-.536 1.12.013.3.304.558.746.717.434.157.975.185 1.513.104.657-.17 1.377-.176 1.968.022 1.081.365 1.354 1.297.536 2.096-.852.832-2.491 1.145-3.58.686-.605-.254-.817-.718-.85-1.147-.025-.335-.338-.603-.765-.77-.43-.17-.932-.163-1.493-.117-.074.006-.407.07-.613.122-.281.07-.86.226-1.344.683a2.873 2.873 0 0 0-.653.907 1.825 1.825 0 0 0-.127.476c-.013.378.211.719.647.938.43.216.998.274 1.585.192.73-.19 1.497-.17 2.09.107 1.09.509 1.217 1.719.194 2.718-1.071 1.047-2.896 1.382-3.975.737-.592-.353-.764-.886-.68-1.507v-.003c0-.003-.003-.149-.023-.226a.94.94 0 0 0-.098-.281 1.281 1.281 0 0 0-.537-.523c-.42-.233-.977-.292-1.557-.21-.726.189-1.437.162-1.904-.117-.796-.476-.558-1.485.464-2.248a4.186 4.186 0 0 1 1.775-.752l.003-.002a4.003 4.003 0 0 0 1.637-.72c.457-.35.695-.732.716-1.062l.002-.002a1.678 1.678 0 0 0-.025-.358c-.02-.285-.005-.567.265-.875.174-.196.55-.387.96-.46.282-.051.644-.04.849-.05.177-.01.487-.044.596-.075.415-.119.662-.252.969-.487.313-.241.508-.494.542-.724.007-.049.024-.274.019-.301-.105-.54.681-1.133 1.756-1.324.545-.096 1.058-.071 1.447.047.013.003.027.005.04.009.394.097.644.278.739.499l.004.001.002.016c.016.04.027.081.033.124.093.237.363.44.802.556.43.113.944.122 1.44.042.599-.153 1.275-.178 1.855-.034 1.058.26 1.422.993.753 1.646m-2.51 12.014c-1.06 1.291-3.177 1.664-4.593.818-1.334-.798-1.452-2.34-.38-3.437 1.023-1.048 2.84-1.384 4.164-.766 1.4.653 1.814 2.16.808 3.385M28.482 7.286L15.768.261a2.116 2.116 0 0 0-2.036 0L1.018 7.286A1.936 1.936 0 0 0 0 8.975v14.05c0 .697.388 1.34 1.018 1.689l12.714 7.025c.63.348 1.406.348 2.036 0l12.714-7.025a1.936 1.936 0 0 0 1.018-1.689V8.975c0-.697-.388-1.34-1.018-1.689" fill="#FFF" mask="url(#b)"/></g></g></svg>